<?xml version="1.0" encoding="utf-8"?>
<!-- Generator: Adobe Illustrator 26.0.1, SVG Export Plug-In . SVG Version: 6.00 Build 0)  -->
<svg version="1.1" id="Layer_1" xmlns="http://www.w3.org/2000/svg" xmlns:xlink="http://www.w3.org/1999/xlink" x="0px" y="0px"
	 viewBox="0 0 300 300" style="enable-background:new 0 0 300 300;" xml:space="preserve">
<style type="text/css">
	.st0{fill:#E4E7E7;}
	.st1{fill:#153AA0;}
	.st2{fill:#062284;}
	.st3{font-family:'Nobel-Bold';}
	.st4{font-size:28.89px;}
</style>
<g>
	<g>
		<g>
			<path class="st0" d="M74.7,152.7l78-78c3.1-3.1,8.1-3.1,11.1,0l83.7,83.3l0,0l-88.4,88.7l0,0l-84.4-82.9
				C71.6,160.7,71.6,155.7,74.7,152.7z"/>
			<path class="st1" d="M156.1,71.2l-84.9,84.9c-1.1,1.1-1.1,3,0,4.1l17.5,17.5l89.1-89.1l-17.4-17.4
				C159.2,70.1,157.3,70.1,156.1,71.2z"/>
			<path class="st1" d="M85.8,174.9l89.1-89.1l5.6,5.6l-89.1,89.1L85.8,174.9z"/>
			<path class="st2" d="M119.2,119.2c1.5-1.5,4-1.5,5.6,0c1.5,1.5,1.5,4,0,5.6c-1.5,1.5-4,1.5-5.6,0
				C117.7,123.3,117.7,120.8,119.2,119.2z"/>
		</g>
		<g id="XMLID_843_">
			<path id="XMLID_846_" class="st1" d="M148.1,148.1l-3.7,29.8l20.8,20.8c1.8,1.8,4.6,1.8,6.4,0l27.1-27.1c1.8-1.8,1.8-4.6,0-6.4
				l-20.8-20.8L148.1,148.1z"/>
			<g id="XMLID_847_">
				<path id="XMLID_848_" class="st2" d="M181.7,146.1l-31.2,4.3l-4.3,31.2c-0.2,1.4-1.5,2.4-2.9,2.2l0,0c-1.4-0.2-2.4-1.5-2.2-2.9
					l4.5-32.4c0.2-1.6,1.5-2.9,3.1-3.1l32.4-4.5c1.4-0.2,2.7,0.8,2.9,2.2l0,0C184.1,144.6,183.1,145.9,181.7,146.1z"/>
			</g>
		</g>
	</g>
	<text transform="matrix(0.7071 -0.7071 0.7071 0.7071 49.6649 147.8003)" class="st3 st4">Mandatory</text>
	<text transform="matrix(0.7071 -0.7071 0.7071 0.7071 193.3119 264.4807)" class="st3 st4">Restday</text>
</g>
</svg>
