<?xml version="1.0" encoding="utf-8"?>
<!-- Generator: Adobe Illustrator 26.0.1, SVG Export Plug-In . SVG Version: 6.00 Build 0)  -->
<svg version="1.1" id="Layer_1" xmlns="http://www.w3.org/2000/svg" xmlns:xlink="http://www.w3.org/1999/xlink" x="0px" y="0px"
	 viewBox="0 0 512 512" style="enable-background:new 0 0 512 512;" xml:space="preserve">
<style type="text/css">
	.st0{fill:#3CDEF6;}
	.st1{fill:#32C1CC;}
	.st2{fill:#FB9761;}
	.st3{fill:#26B8BC;}
	.st4{fill:#33D1DD;}
	.st5{fill:#FFFFFF;}
</style>
<path class="st0" d="M432.5,317.8v105.9c0,18.2-5.5,35.1-14.9,49.1c-15.8,23.6-42.8,39.2-73.3,39.2H167.7
	c-48.8,0-88.3-39.5-88.3-88.3V317.8c0-97.5,79-176.5,176.5-176.5c48.8,0,92.9,19.8,124.8,51.7C412.8,224.9,432.5,269,432.5,317.8z"
	/>
<path class="st0" d="M256,132.4L256,132.4c-34.1,0-61.8-27.7-61.8-61.8V8.8c0-6.3,6.5-10.6,12.3-8.1l46,19.7c2.2,1,4.7,1,7,0
	l46-19.7c5.8-2.5,12.3,1.8,12.3,8.1v61.7C317.8,104.7,290.1,132.4,256,132.4z"/>
<g>
	<path class="st1" d="M256,141.2c-1.3,0-2.7-0.3-3.9-0.9c-2.2-1.1-21.6-11.7-31.1-49.9c-1.2-4.7,1.7-9.5,6.4-10.7
		c4.7-1.2,9.5,1.7,10.7,6.4c5,20.2,13.1,30.5,17.9,35.2c4.8-4.6,12.9-15,17.9-35.2c1.2-4.7,6-7.6,10.7-6.4c4.7,1.2,7.6,6,6.4,10.7
		c-9.5,38.2-28.9,48.8-31.1,49.9C258.7,140.9,257.3,141.2,256,141.2z"/>
	<path class="st1" d="M282.5,176.5c-2.3,0-4.5-0.9-6.2-2.6L256,153.7l-20.2,20.2c-3.4,3.4-9,3.4-12.5,0s-3.4-9,0-12.5l26.5-26.5
		c3.4-3.4,9-3.4,12.5,0l26.5,26.5c3.4,3.4,3.4,9,0,12.5C287,175.6,284.7,176.5,282.5,176.5z"/>
</g>
<path class="st2" d="M286.9,150.1h-61.8c-7.3,0-13.2-5.9-13.2-13.2l0,0c0-7.3,5.9-13.2,13.2-13.2h61.8c7.3,0,13.2,5.9,13.2,13.2l0,0
	C300.1,144.1,294.2,150.1,286.9,150.1z"/>
<path class="st3" d="M432.5,399.5v24.3c0,18.2-5.5,35.1-14.9,49.1c-74.9-14.6-222.4-47.3-152.8-67.1
	C323.4,389,391.2,393.8,432.5,399.5z"/>
<path class="st4" d="M432.5,413v10.7c0,48.8-39.5,88.3-88.3,88.3H167.7c-48.8,0-88.3-39.5-88.3-88.3v-17.8
	c21.5-14.3,65.5-35.1,130.2-26.3C288.3,390.3,376.2,416.8,432.5,413z"/>
<path class="st5" d="M291.3,331.4v-51.7c13.6,5.2,22.1,13.1,22.1,20.4c0,7.3,5.9,13.2,13.2,13.2c7.3,0,13.2-5.9,13.2-13.2
	c0-21.7-19.6-39.9-48.6-48.2v-9.2c0-7.3-5.9-13.2-13.2-13.2c-7.3,0-13.2,5.9-13.2,13.2v4.7c-2.9-0.2-5.8-0.3-8.8-0.3
	s-5.9,0.1-8.8,0.3v-4.7c0-7.3-5.9-13.2-13.2-13.2s-13.2,5.9-13.2,13.2v9.2c-28.9,8.3-48.6,26.5-48.6,48.2s19.6,39.9,48.6,48.2V400
	c-13.6-5.2-22.1-13.1-22.1-20.4c0-7.3-5.9-13.2-13.2-13.2s-13.2,5.9-13.2,13.2c0,21.7,19.6,39.9,48.6,48.2v9.2
	c0,7.3,5.9,13.2,13.2,13.2s13.2-5.9,13.2-13.2v-4.7c2.9,0.2,5.8,0.3,8.8,0.3c3,0,5.9-0.1,8.8-0.3v4.7c0,7.3,5.9,13.2,13.2,13.2
	c7.3,0,13.2-5.9,13.2-13.2v-9.2c28.9-8.3,48.6-26.5,48.6-48.2C339.9,357.9,320.2,339.7,291.3,331.4z M256,273.7c3,0,6,0.1,8.8,0.3
	v52.9c-2.9-0.2-5.8-0.3-8.8-0.3c-3,0-6-0.1-8.8-0.3V274C250,273.8,253,273.7,256,273.7z M198.6,300.1c0-7.3,8.5-15.2,22.1-20.4v40.8
	C207.1,315.3,198.6,307.5,198.6,300.1z M256,406.1c-3,0-6-0.1-8.8-0.3v-52.9c2.9,0.2,5.8,0.3,8.8,0.3c3,0,6,0.1,8.8,0.3v52.3
	C262,405.9,259,406.1,256,406.1z M291.3,400v-40.8c13.6,5.2,22.1,13.1,22.1,20.4C313.4,386.9,304.9,394.8,291.3,400z"/>
</svg>
