<svg xmlns="http://www.w3.org/2000/svg" width="27.161" height="25.717" viewBox="0 0 27.161 25.717">
  <g id="Group_10" data-name="Group 10" transform="translate(-8221.641 -9112.694)">
    <circle id="Ellipse_6" data-name="Ellipse 6" cx="12.858" cy="12.858" r="12.858" transform="translate(8223.085 9112.694)" fill="#c7a63d"/>
    <g id="Group_8" data-name="Group 8" transform="translate(8223.085 9113.123)" opacity="0.4">
      <path id="Path_60" data-name="Path 60" d="M144.6,449.774c.1.146.208.291.317.433h20.413c.109-.142.214-.286.317-.433Z" transform="translate(-142.261 -429.961)" fill="#8f7a2e"/>
      <path id="Path_61" data-name="Path 61" d="M136.712,437.264c.081.146.165.29.252.433h21.931c.087-.142.17-.287.252-.433Z" transform="translate(-135.071 -418.552)" fill="#8f7a2e"/>
      <path id="Path_62" data-name="Path 62" d="M154.443,462.287q.194.22.4.433h18.518q.2-.212.4-.433Z" transform="translate(-151.242 -441.374)" fill="#8f7a2e"/>
      <path id="Path_63" data-name="Path 63" d="M130.458,424.754c.064.145.129.29.2.433h23.139c.069-.143.134-.287.2-.433Z" transform="translate(-129.367 -407.143)" fill="#8f7a2e"/>
      <path id="Path_64" data-name="Path 64" d="M125.625,412.241c.048.145.1.29.151.433h24.082c.054-.143.1-.287.152-.433Z" transform="translate(-124.96 -395.73)" fill="#8f7a2e"/>
      <path id="Path_65" data-name="Path 65" d="M156.553,262.533H175.5q-.2-.221-.416-.433H156.969Q156.756,262.311,156.553,262.533Z" transform="translate(-153.167 -258.798)" fill="#8f7a2e"/>
      <path id="Path_66" data-name="Path 66" d="M166.83,474.8q.249.223.511.433h16.114q.261-.21.511-.433Z" transform="translate(-162.54 -452.783)" fill="#8f7a2e"/>
      <path id="Path_67" data-name="Path 67" d="M182.924,487.311c.227.152.46.295.7.433h12.911c.236-.138.47-.28.7-.433Z" transform="translate(-177.218 -464.196)" fill="#8f7a2e"/>
      <path id="Path_68" data-name="Path 68" d="M118.061,362.518c0,.037,0,.074,0,.111h25.71c0-.037,0-.074,0-.111,0-.108-.006-.214-.008-.321h-25.7C118.066,362.3,118.061,362.41,118.061,362.518Z" transform="translate(-118.061 -350.089)" fill="#8f7a2e"/>
      <path id="Path_69" data-name="Path 69" d="M214.937,500.253q.581-.19,1.136-.433H205.794q.555.242,1.137.433Z" transform="translate(-198.076 -475.605)" fill="#8f7a2e"/>
      <path id="Path_70" data-name="Path 70" d="M122.048,399.731q.052.218.11.433h24.793q.059-.215.11-.433Z" transform="translate(-121.697 -384.321)" fill="#8f7a2e"/>
      <path id="Path_71" data-name="Path 71" d="M146.619,274.614c-.113.142-.225.286-.332.433h20.749q-.161-.22-.332-.433Z" transform="translate(-143.804 -270.211)" fill="#8f7a2e"/>
      <path id="Path_72" data-name="Path 72" d="M138.343,287.124c-.091.143-.18.286-.266.433h22.194c-.086-.146-.174-.29-.266-.433Z" transform="translate(-136.316 -281.621)" fill="#8f7a2e"/>
      <path id="Path_73" data-name="Path 73" d="M119.63,387.217c.021.145.047.289.073.433H145c.026-.144.052-.287.073-.433Z" transform="translate(-119.492 -372.908)" fill="#8f7a2e"/>
      <path id="Path_74" data-name="Path 74" d="M131.744,299.637c-.073.143-.143.287-.211.433h23.345c-.067-.146-.138-.29-.211-.433Z" transform="translate(-130.348 -293.033)" fill="#8f7a2e"/>
      <path id="Path_75" data-name="Path 75" d="M187.373,237.077c-.252.136-.5.281-.739.433h13.65c-.241-.151-.486-.3-.739-.433Z" transform="translate(-180.601 -235.976)" fill="#8f7a2e"/>
      <path id="Path_76" data-name="Path 76" d="M212.939,224.567a12.738,12.738,0,0,0-1.328.433h9.256a12.82,12.82,0,0,0-1.328-.433Z" transform="translate(-203.381 -224.567)" fill="#8f7a2e"/>
      <path id="Path_77" data-name="Path 77" d="M170.114,249.591q-.274.209-.535.433H186.23q-.262-.223-.535-.433Z" transform="translate(-165.047 -247.39)" fill="#8f7a2e"/>
      <path id="Path_78" data-name="Path 78" d="M118.352,374.707q.013.217.033.433h25.6q.02-.215.033-.433Z" transform="translate(-118.326 -361.498)" fill="#8f7a2e"/>
      <path id="Path_79" data-name="Path 79" d="M118.571,349.684c-.016.143-.027.287-.038.433h25.633c-.011-.145-.022-.289-.038-.433Z" transform="translate(-118.491 -338.677)" fill="#8f7a2e"/>
      <path id="Path_80" data-name="Path 80" d="M126.59,312.147c-.057.143-.112.287-.163.433h24.244c-.052-.146-.107-.289-.164-.433Z" transform="translate(-125.691 -304.442)" fill="#8f7a2e"/>
      <path id="Path_81" data-name="Path 81" d="M122.722,324.661c-.042.143-.085.287-.122.433h24.917c-.037-.146-.08-.289-.122-.433Z" transform="translate(-122.201 -315.855)" fill="#8f7a2e"/>
      <path id="Path_82" data-name="Path 82" d="M120.088,337.171c-.028.143-.053.287-.077.433h25.373c-.023-.145-.049-.289-.077-.433Z" transform="translate(-119.839 -327.265)" fill="#8f7a2e"/>
    </g>
    <circle id="Ellipse_7" data-name="Ellipse 7" cx="12.858" cy="12.858" r="12.858" transform="translate(8221.641 9112.694)" fill="#f1cb49"/>
    <circle id="Ellipse_8" data-name="Ellipse 8" cx="10.385" cy="10.385" r="10.385" transform="translate(8224.114 9115.168)" fill="#d9ba55"/>
    <circle id="Ellipse_9" data-name="Ellipse 9" cx="9.635" cy="9.635" r="9.635" transform="translate(8224.864 9115.918)" fill="#f8e7a9"/>
    <path id="Path_60-2" data-name="Path 60" d="M126.072,255.163a.319.319,0,0,1-.011-.639c.1,0,.209-.009.313-.015a.32.32,0,1,1,.04.638c-.11.007-.22.012-.33.016Zm-2.559-.192a.31.31,0,0,1-.059-.005q-.163-.031-.324-.066a.319.319,0,1,1,.136-.624c.1.022.2.043.306.062a.32.32,0,0,1-.058.633Zm5.408-.269a.32.32,0,0,1-.09-.626q.15-.044.3-.093a.319.319,0,1,1,.2.608q-.157.051-.316.1A.307.307,0,0,1,128.922,254.7Zm-8.155-.619a.316.316,0,0,1-.135-.03q-.15-.07-.3-.145a.319.319,0,1,1,.287-.571c.093.047.188.093.282.137a.32.32,0,0,1-.136.609Zm10.8-.539a.319.319,0,0,1-.165-.593c.089-.054.178-.108.266-.164a.32.32,0,0,1,.343.539q-.139.088-.28.173A.321.321,0,0,1,131.565,253.543Zm-13.237-1.006a.318.318,0,0,1-.2-.073q-.127-.105-.252-.214a.319.319,0,1,1,.42-.481q.118.1.239.2a.32.32,0,0,1-.2.566Zm15.508-.772a.32.32,0,0,1-.227-.544c.073-.074.146-.149.218-.226a.32.32,0,1,1,.466.437c-.075.08-.152.159-.229.237A.32.32,0,0,1,133.836,251.764Zm-17.486-1.329a.319.319,0,0,1-.258-.131c-.065-.089-.128-.178-.191-.268a.32.32,0,1,1,.526-.364c.06.086.12.172.181.256a.32.32,0,0,1-.257.508Zm19.247-.957a.319.319,0,0,1-.275-.481c.053-.09.1-.181.155-.273a.319.319,0,1,1,.56.308q-.08.145-.163.287A.319.319,0,0,1,135.6,249.478Zm-20.643-1.567a.32.32,0,0,1-.3-.2c-.041-.1-.08-.205-.118-.309a.32.32,0,0,1,.6-.219c.035.1.073.2.111.292a.319.319,0,0,1-.179.415A.313.313,0,0,1,114.954,247.912Zm21.781-1.087a.316.316,0,0,1-.089-.013.32.32,0,0,1-.219-.4q.043-.15.082-.3a.319.319,0,1,1,.619.158q-.041.16-.087.32A.32.32,0,0,1,136.735,246.825Zm-22.5-1.708a.319.319,0,0,1-.317-.279q-.021-.163-.037-.328a.319.319,0,0,1,.636-.063c.01.1.022.208.035.311a.32.32,0,0,1-.277.357Zm22.941-1.145h-.008a.32.32,0,0,1-.311-.328c0-.1,0-.208,0-.313v-.047a.319.319,0,0,1,.639,0v.047q0,.165,0,.33A.319.319,0,0,1,137.174,243.972Zm-22.946-1.741-.039,0a.319.319,0,0,1-.278-.356q.02-.164.045-.327a.32.32,0,0,1,.632.1q-.023.154-.043.31A.319.319,0,0,1,114.228,242.232Zm22.656-1.176a.32.32,0,0,1-.311-.247c-.024-.1-.049-.2-.075-.3a.319.319,0,1,1,.619-.16q.041.16.079.32a.319.319,0,0,1-.239.384A.36.36,0,0,1,136.884,241.055Zm-21.946-1.622a.312.312,0,0,1-.117-.022.319.319,0,0,1-.181-.414c.04-.1.082-.205.126-.307a.319.319,0,0,1,.588.25q-.061.144-.119.29A.321.321,0,0,1,114.938,239.434Zm20.95-1.086a.319.319,0,0,1-.283-.172q-.073-.139-.149-.276a.32.32,0,0,1,.559-.31q.08.144.155.289a.319.319,0,0,1-.282.467ZM116.324,236.9a.319.319,0,0,1-.258-.507q.1-.134.2-.264a.319.319,0,1,1,.508.388c-.063.083-.126.167-.188.251A.318.318,0,0,1,116.324,236.9Zm17.923-.927a.318.318,0,0,1-.238-.106c-.07-.078-.14-.155-.212-.23a.319.319,0,1,1,.464-.439q.113.12.223.243a.319.319,0,0,1-.238.533ZM118.3,234.794a.32.32,0,0,1-.2-.565q.127-.105.256-.207a.32.32,0,0,1,.4.5q-.123.1-.243.2A.319.319,0,0,1,118.3,234.794Zm13.774-.714a.319.319,0,0,1-.178-.054q-.13-.087-.262-.171a.319.319,0,1,1,.341-.541q.14.088.278.181a.32.32,0,0,1-.178.585Zm-11.343-.84a.32.32,0,0,1-.137-.608c.1-.047.2-.093.3-.137a.319.319,0,1,1,.257.585c-.1.042-.19.085-.283.13A.317.317,0,0,1,120.727,233.239Zm8.763-.455a.318.318,0,0,1-.106-.019c-.1-.034-.2-.068-.3-.1a.319.319,0,0,1,.2-.608c.105.034.211.069.314.106a.32.32,0,0,1-.106.621Zm-6.023-.444a.319.319,0,0,1-.06-.633c.108-.021.217-.04.326-.058a.319.319,0,0,1,.1.631c-.1.017-.206.035-.308.055A.341.341,0,0,1,123.467,232.341Zm3.2-.165h-.028c-.1-.009-.207-.017-.312-.022a.319.319,0,0,1,.037-.638c.111.007.22.014.33.024a.319.319,0,0,1-.027.638Z" transform="translate(8108.839 8882.22)" fill="#f6e296"/>
    <path id="Path_61-2" data-name="Path 61" d="M205.779,294.094v-1.939a8.2,8.2,0,0,1-3.468-.877l.612-2.387a7.206,7.206,0,0,0,3.388.9c1.163,0,1.959-.449,1.959-1.265,0-.775-.653-1.264-2.163-1.775-2.184-.734-3.673-1.754-3.673-3.734,0-1.8,1.265-3.2,3.448-3.632v-1.938h2v1.8a7.343,7.343,0,0,1,2.958.673l-.592,2.306a6.764,6.764,0,0,0-2.938-.694c-1.325,0-1.754.572-1.754,1.143,0,.673.714,1.1,2.449,1.754,2.428.857,3.407,1.979,3.407,3.815,0,1.816-1.285,3.367-3.632,3.775v2.081Z" transform="translate(8028.186 8840.33)" fill="#c7a63d"/>
    <path id="Path_62-2" data-name="Path 62" d="M199.334,287.646v-1.939a8.208,8.208,0,0,1-3.468-.877l.612-2.388a7.206,7.206,0,0,0,3.388.9c1.163,0,1.959-.449,1.959-1.265,0-.775-.653-1.264-2.163-1.775-2.184-.734-3.673-1.755-3.673-3.734,0-1.8,1.265-3.2,3.448-3.632V271h2v1.8a7.343,7.343,0,0,1,2.958.673l-.592,2.306a6.764,6.764,0,0,0-2.938-.694c-1.326,0-1.754.572-1.754,1.143,0,.673.714,1.1,2.449,1.755,2.428.857,3.407,1.979,3.407,3.815,0,1.816-1.285,3.367-3.631,3.775v2.081h-2Z" transform="translate(8034.063 8846.211)" fill="#f1cb49"/>
    <g id="Group_9" data-name="Group 9" transform="translate(8222.243 9116.571)">
      <path id="Path_86" data-name="Path 86" d="M169.557,263.767l.546,3.325,3.325.547-3.325.546-.546,3.325-.547-3.325-3.325-.546,3.325-.547Z" transform="translate(-160.655 -263.767)" fill="#fff"/>
      <path id="Path_87" data-name="Path 87" d="M110.938,310.611l.344,2.094,2.094.344-2.094.344-.344,2.094-.344-2.094-2.094-.344,2.094-.344Z" transform="translate(-108.5 -306.49)" fill="#fff"/>
    </g>
  </g>
</svg>
