<svg xmlns="http://www.w3.org/2000/svg" xmlns:xlink="http://www.w3.org/1999/xlink" width="48" height="48" viewBox="0 0 48 48">
  <defs>
    <clipPath id="clip-path">
      <rect id="Rectangle_207" data-name="Rectangle 207" width="40.399" height="20.069" fill="none"/>
    </clipPath>
    <clipPath id="clip-path-2">
      <rect id="Rectangle_206" data-name="Rectangle 206" width="40.348" height="20.018" fill="none"/>
    </clipPath>
  </defs>
  <g id="Group_166" data-name="Group 166" transform="translate(-20 -120)">
    <circle id="Ellipse_2" data-name="Ellipse 2" cx="24" cy="24" r="24" transform="translate(20 120)" fill="#fff"/>
    <g id="Group_6" data-name="Group 6" transform="translate(33.965 166.234) rotate(-90)">
      <g id="Group_5" data-name="Group 5" clip-path="url(#clip-path)">
        <g id="Group_4" data-name="Group 4" transform="translate(0.026 0.026)">
          <g id="Group_3" data-name="Group 3" clip-path="url(#clip-path-2)">
            <g id="Group_2" data-name="Group 2">
              <g id="Group_1" data-name="Group 1" clip-path="url(#clip-path-2)">
                <path id="Path_1" data-name="Path 1" d="M381.672,74.3c.547,0,.991,1.071.991,2.392s-.444,2.392-.991,2.392a.428.428,0,0,1-.139-.024,8.691,8.691,0,0,0,0-4.738.428.428,0,0,1,.139-.024" transform="translate(-342.316 -66.685)" fill="#aab9ba"/>
                <path id="Path_2" data-name="Path 2" d="M381.462,74.3h.146a.429.429,0,0,0-.139.024.206.206,0,0,0-.007-.024" transform="translate(-342.252 -66.685)" fill="#ff9d00"/>
                <path id="Path_3" data-name="Path 3" d="M381.608,120.616h-.146a.233.233,0,0,0,.007-.024.427.427,0,0,0,.139.024" transform="translate(-342.252 -108.214)" fill="#ff9d00"/>
                <path id="Path_4" data-name="Path 4" d="M378.258,74.532a8.691,8.691,0,0,1,0,4.738.786.786,0,0,1-.376-.323,4.623,4.623,0,0,0,0-4.092.78.78,0,0,1,.376-.323" transform="translate(-339.04 -66.892)" fill="#aab9ba"/>
                <path id="Path_5" data-name="Path 5" d="M373.765,74.3a.212.212,0,0,1,.007.024.781.781,0,0,0-.375.323.66.66,0,0,0-.514-.347Z" transform="translate(-334.555 -66.685)" fill="#bfcdcf"/>
                <path id="Path_6" data-name="Path 6" d="M373.772,117.775a.24.24,0,0,1-.007.024h-.883a.66.66,0,0,0,.514-.347.786.786,0,0,0,.376.323" transform="translate(-334.555 -105.397)" fill="#bfcdcf"/>
                <path id="Path_7" data-name="Path 7" d="M364.614,60.854h-.882c-.279,0-.53.276-.71.721a13.415,13.415,0,0,0-.339-1.951.9.9,0,0,1,.638-.312c.528,0,1,.6,1.294,1.542" transform="translate(-325.404 -53.237)" fill="#073c52"/>
                <path id="Path_8" data-name="Path 8" d="M363.741,114.533h.882c-.3.937-.767,1.541-1.294,1.541a.9.9,0,0,1-.637-.312,13.538,13.538,0,0,0,.338-1.95c.18.444.431.721.71.721" transform="translate(-325.414 -102.132)" fill="#073c52"/>
                <path id="Path_9" data-name="Path 9" d="M373.71,77.672a4.624,4.624,0,0,1,0,4.092,4.614,4.614,0,0,1,0-4.092" transform="translate(-334.869 -69.709)" fill="#aab9ba"/>
                <path id="Path_10" data-name="Path 10" d="M367.206,74.649a4.614,4.614,0,0,0,0,4.092.661.661,0,0,1-.514.347c-.279,0-.53-.277-.71-.721a16.608,16.608,0,0,0,0-3.343c.18-.445.431-.721.71-.721a.661.661,0,0,1,.514.347" transform="translate(-328.364 -66.685)" fill="#bfcdcf"/>
                <path id="Path_11" data-name="Path 11" d="M361.862,59.312h.722a.9.9,0,0,0-.638.312c-.027-.106-.055-.21-.084-.312" transform="translate(-324.668 -53.237)" fill="#195170"/>
                <path id="Path_12" data-name="Path 12" d="M362.584,133.084h-.722c.03-.1.059-.206.085-.312a.9.9,0,0,0,.637.312" transform="translate(-324.668 -119.141)" fill="#195170"/>
                <path id="Path_13" data-name="Path 13" d="M364.358,81.312a16.62,16.62,0,0,1,0,3.343,3.615,3.615,0,0,1-.186-.638,9.292,9.292,0,0,0,0-2.067,3.589,3.589,0,0,1,.186-.638" transform="translate(-326.741 -72.974)" fill="#bfcdcf"/>
                <path id="Path_14" data-name="Path 14" d="M363.329,87.512a9.3,9.3,0,0,1,0,2.067,5.575,5.575,0,0,1,0-2.067" transform="translate(-325.897 -78.537)" fill="#bfcdcf"/>
                <path id="Path_15" data-name="Path 15" d="M359.613,64.293a3.592,3.592,0,0,0-.186.638,6.054,6.054,0,0,0-.544-2.019,2.318,2.318,0,0,1,.391-.57,13.407,13.407,0,0,1,.34,1.951" transform="translate(-321.996 -55.956)" fill="#073c52"/>
                <path id="Path_16" data-name="Path 16" d="M359.426,107.612a3.607,3.607,0,0,0,.186.638,13.542,13.542,0,0,1-.338,1.95,2.277,2.277,0,0,1-.392-.57,6.04,6.04,0,0,0,.544-2.018" transform="translate(-321.995 -96.569)" fill="#073c52"/>
                <path id="Path_17" data-name="Path 17" d="M354.169,69.9a5.575,5.575,0,0,0,0,2.067,6.04,6.04,0,0,1-.544,2.018,8.03,8.03,0,0,1,0-6.1,6.054,6.054,0,0,1,.544,2.019" transform="translate(-316.737 -60.926)" fill="#073c52"/>
                <path id="Path_18" data-name="Path 18" d="M350.217,59.312c.03.1.058.206.084.312a2.323,2.323,0,0,0-.391.57c-.281-.551-.639-.881-1.029-.881Z" transform="translate(-313.023 -53.237)" fill="#195170"/>
                <path id="Path_19" data-name="Path 19" d="M350.3,127.8c-.027.106-.056.21-.085.312h-1.335c.39,0,.748-.33,1.029-.881a2.274,2.274,0,0,0,.392.57" transform="translate(-313.023 -114.171)" fill="#195170"/>
                <path id="Path_20" data-name="Path 20" d="M336.4,33.2h-1.335a.982.982,0,0,0-.742.429,16.185,16.185,0,0,0-.842-3.293,1.284,1.284,0,0,1,.555-.13c.98,0,1.846,1.185,2.364,2.994" transform="translate(-299.207 -27.121)" fill="#073c52"/>
                <path id="Path_21" data-name="Path 21" d="M335.075,132.07h1.335c-.517,1.809-1.383,2.994-2.364,2.994a1.28,1.28,0,0,1-.555-.13,16.23,16.23,0,0,0,.841-3.292.987.987,0,0,0,.742.428" transform="translate(-299.216 -118.128)" fill="#073c52"/>
                <path id="Path_22" data-name="Path 22" d="M343.442,60.193a8.028,8.028,0,0,0,0,6.1c-.281.551-.639.881-1.029.881a.987.987,0,0,1-.742-.428,23.548,23.548,0,0,0,0-7.011.982.982,0,0,1,.742-.429c.39,0,.748.33,1.029.881" transform="translate(-306.555 -53.237)" fill="#195170"/>
                <path id="Path_23" data-name="Path 23" d="M339.214,63.482a23.557,23.557,0,0,1,0,7.011,2.638,2.638,0,0,1-.282-.442,16.043,16.043,0,0,0,0-6.127,2.563,2.563,0,0,1,.282-.441" transform="translate(-304.097 -56.978)" fill="#195170"/>
                <path id="Path_24" data-name="Path 24" d="M327.955,34.755a2.566,2.566,0,0,0-.282.441,7.393,7.393,0,0,0-1.291-3.133,2.17,2.17,0,0,1,.73-.6,16.187,16.187,0,0,1,.842,3.293" transform="translate(-292.837 -28.252)" fill="#073c52"/>
                <path id="Path_25" data-name="Path 25" d="M327.673,127.342a2.641,2.641,0,0,0,.282.442,16.23,16.23,0,0,1-.841,3.292,2.161,2.161,0,0,1-.731-.6,7.367,7.367,0,0,0,1.291-3.133" transform="translate(-292.837 -114.27)" fill="#073c52"/>
                <path id="Path_26" data-name="Path 26" d="M333.63,67.772a16.045,16.045,0,0,1,0,6.127,8.024,8.024,0,0,1,0-6.127" transform="translate(-298.795 -60.827)" fill="#195170"/>
                <path id="Path_27" data-name="Path 27" d="M332.992,30.2h.606a1.284,1.284,0,0,0-.555.13c-.016-.044-.034-.087-.05-.13" transform="translate(-298.768 -27.121)" fill="#ff9d00"/>
                <path id="Path_28" data-name="Path 28" d="M333.6,163.782h-.606c.018-.042.034-.085.051-.13a1.28,1.28,0,0,0,.554.13" transform="translate(-298.768 -146.845)" fill="#195170"/>
                <path id="Path_29" data-name="Path 29" d="M313.83,40.445a8.024,8.024,0,0,0,0,6.127,7.366,7.366,0,0,1-1.291,3.133c-.941-1.138-1.587-3.485-1.587-6.2s.646-5.06,1.587-6.2a7.392,7.392,0,0,1,1.291,3.133" transform="translate(-278.995 -33.5)" fill="#073c52"/>
                <path id="Path_30" data-name="Path 30" d="M315.848,30.2c.016.042.034.085.05.13a2.17,2.17,0,0,0-.73.6,1.716,1.716,0,0,0-1.286-.731Z" transform="translate(-281.623 -27.121)" fill="#195170"/>
                <path id="Path_31" data-name="Path 31" d="M315.9,158.4c-.017.044-.034.087-.051.13h-1.966a1.716,1.716,0,0,0,1.286-.731,2.161,2.161,0,0,0,.731.6" transform="translate(-281.623 -141.597)" fill="#195170"/>
                <path id="Path_32" data-name="Path 32" d="M291.176,157.878c-.754,1.9-1.817,3.082-2.994,3.082a2.43,2.43,0,0,1-1.8-.987,8.461,8.461,0,0,0,1.482-2.9,1.771,1.771,0,0,0,1.346.806Z" transform="translate(-256.952 -140.942)" fill="#073c52"/>
                <path id="Path_33" data-name="Path 33" d="M288.183.252c1.177,0,2.239,1.182,2.994,3.081h-1.965a1.768,1.768,0,0,0-1.346.806,8.467,8.467,0,0,0-1.482-2.9,2.429,2.429,0,0,1,1.8-.987" transform="translate(-256.953 -0.252)" fill="#073c52"/>
                <path id="Path_34" data-name="Path 34" d="M303.424,30.933c-.941,1.138-1.587,3.486-1.587,6.2h-.178a20.461,20.461,0,0,0-.867-6.122,1.768,1.768,0,0,1,1.346-.806,1.716,1.716,0,0,1,1.286.731" transform="translate(-269.88 -27.121)" fill="#195170"/>
                <path id="Path_35" data-name="Path 35" d="M301.838,97.562c0,2.711.646,5.058,1.587,6.2a1.716,1.716,0,0,1-1.286.731,1.771,1.771,0,0,1-1.346-.806,20.459,20.459,0,0,0,.867-6.121Z" transform="translate(-269.88 -87.553)" fill="#195170"/>
                <path id="Path_36" data-name="Path 36" d="M268.883.252h3.6a2.429,2.429,0,0,0-1.8.987,2.432,2.432,0,0,0-1.8-.987" transform="translate(-241.253 -0.252)" fill="#195170"/>
                <path id="Path_37" data-name="Path 37" d="M272.483,186.259h-3.6a2.432,2.432,0,0,0,1.8-.987,2.429,2.429,0,0,0,1.8.987" transform="translate(-241.253 -166.242)" fill="#195170"/>
                <path id="Path_38" data-name="Path 38" d="M287.478,38.042a20.461,20.461,0,0,1,.867,6.122,20.459,20.459,0,0,1-.867,6.121,10.7,10.7,0,0,1-1.526-6.121,10.7,10.7,0,0,1,1.526-6.122" transform="translate(-256.566 -34.155)" fill="#195170"/>
                <path id="Path_39" data-name="Path 39" d="M265.883,9.852a8.466,8.466,0,0,1,1.482,2.9,10.7,10.7,0,0,0-1.526,6.122,10.7,10.7,0,0,0,1.526,6.121,8.462,8.462,0,0,1-1.482,2.9c-1.391-1.618-2.35-5.049-2.35-9.022s.96-7.4,2.35-9.022" transform="translate(-236.453 -8.865)" fill="#073c52"/>
                <path id="Path_40" data-name="Path 40" d="M234.483,1.239c-1.391,1.618-2.35,5.049-2.35,9.022s.96,7.4,2.35,9.022a2.432,2.432,0,0,1-1.8.987c-1.876,0-3.463-3.005-3.975-7.129a23.82,23.82,0,0,1,0-5.76c.512-4.124,2.1-7.129,3.975-7.129a2.432,2.432,0,0,1,1.8.987" transform="translate(-205.053 -0.252)" fill="#195170"/>
                <path id="Path_41" data-name="Path 41" d="M155.462,69.562h7.691a23.8,23.8,0,0,0,0,5.76h-7.691a23.806,23.806,0,0,0,0-5.76" transform="translate(-139.498 -62.433)" fill="#bfcdcf"/>
                <path id="Path_42" data-name="Path 42" d="M124.062,69.562a23.806,23.806,0,0,1,0,5.76h-3.6q.057-.454.1-.924a6.18,6.18,0,0,0,0-3.913q-.039-.471-.1-.924Z" transform="translate(-108.098 -62.433)" fill="#bfcdcf"/>
                <path id="Path_43" data-name="Path 43" d="M105.1,7.381h-3.6a12.168,12.168,0,0,0-2.174-6.142,2.43,2.43,0,0,1,1.8-.987c1.876,0,3.462,3.005,3.974,7.129" transform="translate(-89.132 -0.252)" fill="#073c52"/>
                <path id="Path_44" data-name="Path 44" d="M101.5,125.562h3.6c-.512,4.124-2.1,7.129-3.974,7.129a2.429,2.429,0,0,1-1.8-.987,12.17,12.17,0,0,0,2.174-6.142" transform="translate(-89.133 -112.673)" fill="#073c52"/>
                <path id="Path_45" data-name="Path 45" d="M121.471,80.5c0-.67-.028-1.324-.079-1.956a6.18,6.18,0,0,1,0,3.913c.051-.633.079-1.287.079-1.956" transform="translate(-108.932 -70.489)" fill="#bfcdcf"/>
                <path id="Path_46" data-name="Path 46" d="M103.342,70.486c.051.633.079,1.287.079,1.956s-.028,1.324-.079,1.956c-.217.568-.529.924-.875.924-.659,0-1.194-1.29-1.194-2.88s.535-2.88,1.194-2.88c.347,0,.658.356.875.924" transform="translate(-90.882 -62.433)" fill="#bfcdcf"/>
                <path id="Path_47" data-name="Path 47" d="M113.757,70.486c-.217-.568-.529-.924-.875-.924h.78q.057.454.1.924" transform="translate(-101.297 -62.433)" fill="#bfcdcf"/>
                <path id="Path_48" data-name="Path 48" d="M112.882,117.506c.347,0,.658-.356.875-.924q-.039.471-.1.924Z" transform="translate(-101.297 -104.617)" fill="#bfcdcf"/>
                <path id="Path_49" data-name="Path 49" d="M81,15.994h-.78c-.659,0-1.194,1.289-1.194,2.88s.535,2.88,1.194,2.88H81A12.17,12.17,0,0,1,78.822,27.9c-1.391-1.618-2.35-5.049-2.35-9.022s.96-7.4,2.35-9.022A12.17,12.17,0,0,1,81,15.994" transform="translate(-68.632 -8.865)" fill="#073c52"/>
                <path id="Path_50" data-name="Path 50" d="M81.823.252h3.6a2.429,2.429,0,0,0-1.8.987,2.432,2.432,0,0,0-1.8-.987" transform="translate(-73.433 -0.252)" fill="#195170"/>
                <path id="Path_51" data-name="Path 51" d="M85.423,186.259h-3.6a2.432,2.432,0,0,0,1.8-.987,2.429,2.429,0,0,0,1.8.987" transform="translate(-73.433 -166.242)" fill="#195170"/>
                <path id="Path_52" data-name="Path 52" d="M57.059,1.239c-1.391,1.618-2.35,5.049-2.35,9.022H54.53c0-3.369-1-6.177-2.317-6.8.016-.044.034-.087.05-.13.755-1.9,1.817-3.081,3-3.081a2.432,2.432,0,0,1,1.8.987" transform="translate(-46.869 -0.252)" fill="#195170"/>
                <path id="Path_53" data-name="Path 53" d="M54.708,97.562c0,3.972.96,7.4,2.35,9.022a2.432,2.432,0,0,1-1.8.987c-1.178,0-2.24-1.183-3-3.082-.017-.042-.034-.085-.05-.13,1.321-.622,2.317-3.429,2.317-6.8Z" transform="translate(-46.869 -87.553)" fill="#195170"/>
                <path id="Path_54" data-name="Path 54" d="M42.577,31.462c1.321.622,2.317,3.43,2.317,6.8s-1,6.175-2.317,6.8a19.508,19.508,0,0,1-1.1-6.8,19.51,19.51,0,0,1,1.1-6.8" transform="translate(-37.232 -28.252)" fill="#195170"/>
              </g>
            </g>
          </g>
        </g>
      </g>
    </g>
  </g>
</svg>
