<svg xmlns="http://www.w3.org/2000/svg" width="116" height="116" viewBox="0 0 116 116">
  <g id="money-bag-money-svgrepo-com" transform="translate(-0.153 -0.153)">
    <circle id="Ellipse_18" data-name="Ellipse 18" cx="58" cy="58" r="58" transform="translate(0.153 0.153)" fill="#e4321d"/>
    <path id="Path_150" data-name="Path 150" d="M261.618,53.228s3.473-2.419,5.635-2.29,4.716,3.142,7.665,1.7,3.145-1.572,4.455-.393.852,3.537.852,3.537l-4.193,6.224-5.5.655-7.8-4.652-1.114-4.783Z" transform="translate(-202.189 -39.363)" fill="#edb937"/>
    <path id="Path_151" data-name="Path 151" d="M215.883,63.072a8.8,8.8,0,0,1-.35,2.384c-.63,2.05-32.549,29.01-7.288,42.339,19.532,10.306,53.636-5.353,33.058-29.117l-10.867-12.55a30.332,30.332,0,0,1-.395-3.057c-.011-.428-.085-2.37-.068-2.8a7.868,7.868,0,0,1,.683-3.514c.849-1.86,5.917-5.772,5.917-5.772s-3.3-3.848-4.7-3.431-5.8,8.45-5.8,8.45a4.8,4.8,0,0,1-.4-4.014,40.675,40.675,0,0,1,2.791-6.108s-4.037-1.424-4.992-.336-2.791-1.422-3.893-.333-2.717,2.76-2.717,2.76,2.717,2.092,3.451,3.933a3.471,3.471,0,0,1-.22,3.18,11.709,11.709,0,0,0-1.542-1.339c-1.616-1.339-3.084-6.861-4.992-6.526s-6.462,1.84-3.169,3.846l4.626,6.36s.465,2.028.655,2.844c.065.41.169,2.352.209,2.8Z" transform="translate(-153.434 -34.725)" fill="#fad24d"/>
    <g id="Group_157" data-name="Group 157" transform="translate(51.247 38.052)">
      <path id="Path_152" data-name="Path 152" d="M268.592,254.591c-4.673,16.912-29.207,18.122-42.99,12.988a25.985,25.985,0,0,0,3.564,2.25C244.547,277.944,268.957,269.957,268.592,254.591Z" transform="translate(-225.602 -234.81)" fill="#edb937"/>
      <circle id="Ellipse_19" data-name="Ellipse 19" cx="13.183" cy="13.183" r="13.183" transform="translate(4.796)" fill="#edb937"/>
    </g>
    <g id="Group_158" data-name="Group 158" transform="translate(18.922 25.489)">
      <path id="Path_153" data-name="Path 153" d="M293.064,190.63a4.949,4.949,0,0,0-3.117-1.743V187h-2.2V189c-.152.035-.306.075-.463.123-3.842,1.156-3,4.121-2.965,4.587a4.587,4.587,0,0,0,2.611,2.555c1.753.858,3.767,1.548,3.916,2.387a1.762,1.762,0,0,1-2.108,1.884,8.547,8.547,0,0,1-3.394-1.566l-1.51,1.791a6.02,6.02,0,0,0,3.913,1.866v1.892h2.2v-1.906a3.628,3.628,0,0,0,3.239-2.579,3.535,3.535,0,0,0-1.137-3.786c-1.9-1.38-4.737-1.754-5.2-3.133s1.064-2.555,2.424-2.108a8.266,8.266,0,0,1,2.481,1.417l1.315-1.79Z" transform="translate(-238.28 -170.013)" fill="#fff"/>
      <path id="Path_154" data-name="Path 154" d="M216.411,123.7c.577-7.468,7.142-7.7,10.275-8.933a11.15,11.15,0,0,1,1.1-.371,2.5,2.5,0,0,1,2.536-2.188,2.632,2.632,0,0,1,1.515.474l12.087-.308c.9.336.487,1.5.042,1.691l-11.114.284a2.392,2.392,0,0,1,.017.278,2.327,2.327,0,0,1-.1.658l11.336-.29c.9.336.487,1.5.041,1.691l-13.558.346c-.089.009-.18.014-.271.014l-.129,0h-.012l-.168,0-.026-.022a2.669,2.669,0,0,1-.455-.1,10.286,10.286,0,0,1-3.177,2.575c-2.443,1.517-7.045,2.343-6.809,7.387l-1.184.051c-.268-5.738,4.649-6.759,7.367-8.447a9.674,9.674,0,0,0,2.764-2.183,2.415,2.415,0,0,1-.516-.738c-.265.079-.555.176-.86.3-2.847,1.123-8.993,1.064-9.523,7.915l-1.184-.087Z" transform="translate(-186.173 -112.209)" fill="#fff"/>
      <path id="Path_155" data-name="Path 155" d="M87,338.95,107.976,356.2l-4.966,4.577L83.3,342.32Z" transform="translate(-83.3 -287.444)" fill="#fff"/>
    </g>
    <path id="Path_156" data-name="Path 156" d="M150.454,284.656c5.961,1.73,16.955,3.539,16.955,3.539s-.621,3.952-3.949,4.712-12.23-.986-12.23-.986-1.623,1.6,1.24,2.128,16.878.229,16.878.229,14.388-6.817,16.865-7.73a3.41,3.41,0,0,1,3.947,1.367s-16.556,13.109-18.105,14.251-27.314,3.36-27.314,3.36l-7.634.776-3.018,3.228-1.355,1.964-13.77-11.32,10.985-7.8c4.331-7.264,14.545-9.449,20.506-7.719Z" transform="translate(-91.94 -219.56)" fill="#fed298"/>
    <path id="Path_157" data-name="Path 157" d="M230.477,308.078c-4.582,3.625-14.661,11.59-15.853,12.468-1.549,1.14-27.314,3.36-27.314,3.36l-7.634.776-3.018,3.228-1.355,1.964-1.259-1.035c3.153-3.07,5.439-5.062,4.879-4.748s32.662-2.829,35.207-4.147,14.646-11.07,15.177-11.734a.8.8,0,0,1,1.17-.133h0Z" transform="translate(-134.508 -237.94)" fill="#f0ba7d"/>
    <path id="Path_158" data-name="Path 158" d="M38.128,359.867l9.5-8.99,23.31,20.174-7.864,11A58.409,58.409,0,0,1,38.128,359.867Z" transform="translate(-29.467 -271.172)" fill="#0f7986"/>
    <g id="Group_159" data-name="Group 159" transform="translate(70.718 68.227)">
      <path id="Path_159" data-name="Path 159" d="M311.619,300.777l-.305,1.472,3.426.2a1.27,1.27,0,0,0,.32-1.2Z" transform="translate(-311.314 -300.68)" fill="#fff"/>
      <path id="Path_160" data-name="Path 160" d="M420.8,301.56l.42.445,1.839-1.314c.122-.262-.451-.341-.451-.341Z" transform="translate(-395.93 -300.349)" fill="#fff"/>
    </g>
  </g>
</svg>
