<?xml version="1.0" encoding="utf-8"?>
<!-- Generator: Adobe Illustrator 26.0.1, SVG Export Plug-In . SVG Version: 6.00 Build 0)  -->
<svg version="1.1" id="Layer_1" xmlns="http://www.w3.org/2000/svg" xmlns:xlink="http://www.w3.org/1999/xlink" x="0px" y="0px"
	 viewBox="0 0 300 300" style="enable-background:new 0 0 300 300;" xml:space="preserve">
<style type="text/css">
	.st0{fill:#6F90EF;}
	.st1{fill:#062284;}
	.st2{fill:#DE8161;}
	.st3{fill:#6F0F0B;}
	.st4{fill:#EA8C69;}
	.st5{fill:#E3815C;}
	.st6{fill:#F59977;}
	.st7{opacity:8.000000e-02;fill:#6F0F0B;enable-background:new    ;}
	.st8{fill:#010101;}
	.st9{opacity:0.1;fill:#010101;enable-background:new    ;}
	.st10{fill:#C9C9C9;}
	.st11{fill:#FFFFFF;}
	.st12{font-family:'Nobel-Bold';}
	.st13{font-size:28.8875px;}
	.st14{font-size:28.89px;}
</style>
<g>
	
		<rect y="63.8" transform="matrix(-1 -1.224647e-16 1.224647e-16 -1 236.2238 363.7762)" class="st0" width="236.2" height="236.2"/>
	<g>
		<g id="Group_163" transform="translate(-116 -62)">
			<g id="Group_149" transform="translate(0 -15)">
				<circle id="Ellipse_12" class="st1" cx="241.1" cy="252.1" r="71.5"/>
				<g id="Group_148">
					
						<rect id="Rectangle_285" x="230.1" y="213.9" transform="matrix(0.7071 -0.7071 0.7071 0.7071 -92.6612 250.1095)" class="st2" width="51" height="46"/>
					<path id="Rectangle_286" class="st3" d="M197.2,316.5L176,295.2c-7.8-7.8-7.8-20.5,0-28.3l24.7-24.7l0,0l49.5,49.5l0,0
						l-24.7,24.7C217.7,324.3,205.1,324.3,197.2,316.5z"/>
					<path id="Rectangle_287" class="st4" d="M243.2,297.4l-48.8-48.8c-2.7-2.7-2.7-7.2,0-9.9l0,0c2.7-2.7,7.2-2.7,9.9,0l48.8,48.8
						c2.7,2.7,2.7,7.2,0,9.9l0,0C250.4,300.1,245.9,300.1,243.2,297.4z"/>
					<path id="Rectangle_288" class="st5" d="M245.3,295.2l-48.8-48.8c-1.6-1.6-1.6-4.1,0-5.7l0,0c1.6-1.6,4.1-1.6,5.7,0l48.8,48.8
						c1.6,1.6,1.6,4.1,0,5.7l0,0C249.4,296.8,246.9,296.8,245.3,295.2z"/>
					<path id="Union_15" class="st6" d="M259.8,232.7L259.8,232.7c5.2,5.4,4.9,10.1,4.5,17.2c-0.1,2.1-0.3,4.5-0.3,7.2
						c0,7.3-0.9,14.4-2.3,18.5c-0.5,1.5-1.4,2.9-2.4,4.1l-26.9,26.9c-4.7,4.7-12.3,4.7-17,0l-29.7-29.7c-4.7-4.7-4.7-12.3,0-17
						l26.9-26.9c1.2-1,2.6-1.8,4.1-2.4c4.1-1.4,11.2-2.3,18.5-2.3c2.7,0,5.1-0.1,7.2-0.2C249.7,227.7,254.4,227.5,259.8,232.7z"/>
					<path id="Union_24" class="st7" d="M259.8,232.7c5.2,5.4,4.9,10.1,4.5,17.2c-0.1,2.1-0.2,4.5-0.2,7.2c0,7.3-0.9,14.4-2.3,18.5
						c-0.5,1.5-1.4,2.9-2.4,4.1l-8.2,8.2c-1-10-5-19.4-11.5-27.1l-4-4l0,0l-4-4c-7.7-6.5-17.1-10.5-27.1-11.5l8.2-8.2
						c1.2-1,2.6-1.8,4.1-2.4c4.1-1.4,11.2-2.3,18.5-2.3c2.7,0,5.1-0.1,7.2-0.2C249.7,227.7,254.4,227.5,259.8,232.7z"/>
					<path id="Rectangle_303" class="st8" d="M202.5,268L202.5,268c-1-1-1-2.6,0-3.5l4.2-4.2c1-1,2.6-1,3.5,0l0,0c1,1,1,2.6,0,3.5
						l-4.2,4.2C205.1,269,203.5,269,202.5,268z"/>
					<path id="Rectangle_304" class="st8" d="M223.8,289.2L223.8,289.2c-1-1-1-2.6,0-3.5l4.2-4.2c1-1,2.6-1,3.5,0l0,0
						c1,1,1,2.6,0,3.5l-4.2,4.2C226.3,290.2,224.7,290.2,223.8,289.2z"/>
					<path id="Rectangle_305" class="st3" d="M219.7,282.7L219.7,282.7c1.1-1.1,2.8-1.1,3.9,0l6.7,6.7c1.1,1.1,1.1,2.8,0,3.9l0,0
						c-1.1,1.1-2.8,1.1-3.9,0l-6.7-6.7C218.6,285.5,218.6,283.8,219.7,282.7z"/>
					<path id="Rectangle_306" class="st3" d="M198.5,261.5L198.5,261.5c1.1-1.1,2.8-1.1,3.9,0l6.7,6.7c1.1,1.1,1.1,2.8,0,3.9l0,0
						c-1.1,1.1-2.8,1.1-3.9,0l-6.7-6.7C197.4,264.3,197.4,262.6,198.5,261.5z"/>
					<path id="Rectangle_307" class="st8" d="M228,243.3L228,243.3c1-1,2.6-1,3.5,0l17,17c1,1,1,2.6,0,3.5l0,0c-1,1-2.6,1-3.5,0
						l-17-17C227,245.8,227,244.2,228,243.3z"/>
					<path id="Rectangle_308" class="st3" d="M238.3,272.6l-19.1-19.1c-3.9-3.9-3.9-10.2,0-14.1l2.1-2.1l0,0l33.2,33.2l0,0l-2.1,2.1
						C248.5,276.5,242.2,276.5,238.3,272.6z"/>
					<path id="Rectangle_309" class="st9" d="M251.7,240.8L251.7,240.8c0.4,0.4,0.4,1,0,1.4l-3.5,3.5c-0.4,0.4-1,0.4-1.4,0l0,0
						c-0.4-0.4-0.4-1,0-1.4l3.5-3.5C250.7,240.4,251.3,240.4,251.7,240.8z"/>
				</g>
				<path id="Intersection_5" class="st2" d="M310.1,271.2c-7.7-1.6-14-6.9-16.9-14.2c-5.4,0.8-10.8-0.9-14.6-4.8L240.5,214
					c-3.8-3.8-5.6-9.3-4.8-14.6c-7-2.7-12.2-8.7-14-16c38-10.8,77.5,11.3,88.3,49.3C313.5,245.3,313.6,258.6,310.1,271.2
					L310.1,271.2z"/>
			</g>
			<path id="Rectangle_313" class="st10" d="M216.3,346L216.3,346c-1.6-1.6-1.6-4.1,0-5.7l75.7-75.7l0,0l5.7,5.7l0,0L222,346
				C220.4,347.6,217.9,347.6,216.3,346z"/>
			<path id="Rectangle_314" class="st10" d="M195.1,324.8L195.1,324.8c-1.6-1.6-1.6-4.1,0-5.7l96.2-96.2l0,0l5.7,5.7l0,0l-96.2,96.2
				C199.2,326.4,196.7,326.4,195.1,324.8z"/>
			<path id="Rectangle_315" class="st10" d="M173.9,303.6L173.9,303.6c-1.6-1.6-1.6-4.1,0-5.7l99.7-99.7l0,0l5.7,5.7l0,0l-99.7,99.7
				C178,305.1,175.5,305.1,173.9,303.6z"/>
			<path id="Rectangle_316" class="st10" d="M152.7,282.4L152.7,282.4c-1.6-1.6-1.6-4.1,0-5.7l97.6-97.6l0,0l5.7,5.7l0,0l-97.6,97.6
				C156.8,283.9,154.3,283.9,152.7,282.4z"/>
			<path id="Rectangle_317" class="st10" d="M131.5,261.2L131.5,261.2c-1.6-1.6-1.6-4.1,0-5.7l77.1-77.1l0,0l5.7,5.7l0,0l-77.1,77.1
				C135.6,262.7,133,262.7,131.5,261.2z"/>
			<path id="Intersection_6" class="st10" d="M309.5,258.5L263,305c-4.6,1.5-9.4,2.5-14.3,3l63.8-63.8
				C312,249,311,253.8,309.5,258.5z"/>
			<path id="Intersection_7" class="st10" d="M309.4,216.1l-89.4,89.4c-2.8-0.9-5.6-1.9-8.2-3.1l94.5-94.5
				C307.6,210.6,308.6,213.3,309.4,216.1z"/>
			<path id="Intersection_8" class="st10" d="M294.1,189.1l-101,101c-0.9-0.8-1.7-1.6-2.5-2.4c-1.1-1.1-2.1-2.2-3.1-3.3l100.9-100.9
				c1.1,1,2.2,2,3.3,3.1C292.5,187.4,293.3,188.2,294.1,189.1z"/>
			<path id="Intersection_9" class="st10" d="M175.4,265.3c-1.2-2.7-2.2-5.5-3-8.3l88.6-88.6c2.8,0.8,5.6,1.8,8.3,3L175.4,265.3z"/>
			<path id="Intersection_10" class="st10" d="M170.1,228.1c0.6-5,1.8-10,3.5-14.8l43.7-43.7c4.8-1.7,9.8-2.9,14.8-3.5L170.1,228.1z
				"/>
		</g>
		<text transform="matrix(-0.7071 -0.7071 0.7071 -0.7071 62.5972 259.2759)" class="st11 st12 st13">IN</text>
		<text transform="matrix(-0.7071 -0.7071 0.7071 -0.7071 216.2075 123.7447)" class="st11 st12 st14">JAIL</text>
	</g>
</g>
</svg>
