<?xml version="1.0" encoding="utf-8"?>
<!-- Generator: Adobe Illustrator 26.0.1, SVG Export Plug-In . SVG Version: 6.00 Build 0)  -->
<svg version="1.1" id="Layer_1" xmlns="http://www.w3.org/2000/svg" xmlns:xlink="http://www.w3.org/1999/xlink" x="0px" y="0px"
	 viewBox="0 0 553.9 553.9" style="enable-background:new 0 0 553.9 553.9;" xml:space="preserve">
<style type="text/css">
	.st0{fill:#F2F2F2;}
	.st1{fill:#E6E6E6;}
	.st2{fill:#F24125;}
	.st3{fill:#DD3B2A;}
	.st4{fill:#FB9761;}
	.st5{fill:#D0D0D0;}
	.st6{fill:#EE746C;}
</style>
<g>
	<path class="st0" d="M262.2,231.4c0.1,2.6-0.1,5.5-0.6,8.6c-1.7,10.7-6.6,23.8-13,36.9l-72.3,72.3c-2.6,1.3-5.2,2.5-7.7,3.6
		c-10.4,4.6-20.6,8.1-29.2,9.4c-3.1,0.5-6,0.7-8.6,0.6c-4-12.9-9.4-34.5-10.1-61.1c-1-25.8,2.9-56.5,10.1-70.3c1.9-1,4.2-2,6.8-2.8
		c15.6-5.4,41.4-8.1,63.5-7.2C227.6,221.9,249.3,227.4,262.2,231.4z"/>
	<path class="st1" d="M137.5,228.5c-2.5,23.7,1.8,79.3,31,124.3c-10.4,4.6-20.6,8.1-29.2,9.4c-3.1,0.5-6,0.7-8.6,0.6
		c-4-12.9-9.4-34.5-10.1-61.1c-1-25.8,2.9-56.5,10.1-70.3C132.7,230.3,135,229.4,137.5,228.5z"/>
	<path class="st1" d="M261.6,239.9c-1.7,10.7-6.6,23.8-13,36.9l-72.3,72.3c-13.1,6.4-26.2,11.4-36.9,13L261.6,239.9z"/>
	<path class="st2" d="M412.2,103.6L335.8,180l-49.3,74.8l-87.7,62.2l-21.3,21.3l-6,6L119.8,396c-4.7,4.7-4.7,12.4,0,17.1l15,15
		l42.6-42.6l68.5-68.5l198.4-198.4l-15-15C424.5,98.9,416.9,98.9,412.2,103.6"/>
	<path class="st3" d="M138.3,377.4L119.8,396c-4.7,4.7-4.7,12.4,0,17.1l15,15l18.5-18.5l-15-15C133.6,389.8,133.6,382.2,138.3,377.4
		z"/>
	<polyline class="st3" points="309.2,206.6 198.7,317.1 192.4,323.4 232.2,326.8 243.9,315.1 247.9,315.1 309.2,253.8 309.2,206.6 	
		"/>
	<polygon class="st4" points="521.8,169 538.6,192.4 550.6,209.1 529.8,229.9 497.4,197.4 216.1,478.7 248.5,511.1 227.7,531.9 
		211.1,519.9 187.7,503.1 122.4,451.7 127.2,431.7 450.4,108.5 465.6,97.2 	"/>
	<path class="st4" d="M433.1,52.4l104.7,104.7L524.9,170l-6.5,6.5l-68-68l-36.7-36.7c-2.3-2.3-2.3-6.1,0-8.4l11-11
		C427,50.1,430.8,50.1,433.1,52.4z"/>
	<polyline class="st5" points="309.2,253.8 247.9,315.1 322.1,315.1 309.2,253.8 	"/>
	<path class="st6" d="M243.9,315.1l-11.7,11.7l82.4,7c2.7,0.2,5.2-0.8,6.9-2.5c2-2,3-4.9,2.4-8l-1.7-8.2l-32.2-30.1L243.9,315.1"/>
	<path class="st4" d="M127.2,431.7l68,68l-6.5,6.5l-12.9,12.9L6.6,349.9c-2.3-2.3-2.3-6.1,0-8.4l11-11c2.3-2.3,6.1-2.3,8.4,0
		L127.2,431.7L127.2,431.7z"/>
	<polygon class="st0" points="335.8,180 335.8,227.2 335.8,317.1 245.9,317.1 198.7,317.1 243.8,272 	"/>
	
		<rect x="159.7" y="414" transform="matrix(0.7071 -0.7071 0.7071 0.7071 -278.4684 251.8803)" class="st6" width="10.3" height="96.1"/>
	
		<rect x="475.6" y="98.1" transform="matrix(0.7071 -0.7071 0.7071 0.7071 37.4786 382.7498)" class="st6" width="10.3" height="96.1"/>
	<polygon class="st6" points="497.4,197.4 515.5,215.5 538.6,192.4 523.5,171.4 	"/>
	<polygon class="st6" points="190.1,504.8 211.1,519.9 234.2,496.8 216.1,478.7 	"/>
</g>
</svg>
