<?xml version="1.0" encoding="utf-8"?>
<!-- Generator: Adobe Illustrator 26.0.1, SVG Export Plug-In . SVG Version: 6.00 Build 0)  -->
<svg version="1.1" id="Layer_1" xmlns="http://www.w3.org/2000/svg" xmlns:xlink="http://www.w3.org/1999/xlink" x="0px" y="0px"
	 viewBox="0 0 300 300" style="enable-background:new 0 0 300 300;" xml:space="preserve">
<style type="text/css">
	.st0{fill:#183FC6;stroke:#183FC6;stroke-miterlimit:10;}
	.st1{font-family:'Nobel-Regular';}
	.st2{font-size:22.0188px;}
</style>
<g>
	<polygon class="st0" points="65.7,69.9 97.7,69.9 104,62.7 203.2,62.7 203.2,73.6 233,56.9 203.2,40.2 203.2,51.1 104,51.1 
		97.7,43.9 65.7,43.9 78.9,56.9 	"/>
	<g>
		<text transform="matrix(-0.7071 0.7071 -0.7071 -0.7071 164.5543 117.5519)"><tspan x="0" y="0" class="st1 st2">YOU GET</tspan><tspan x="-21.6" y="26.4" class="st1 st2">$200 SALARY</tspan></text>
		<g>
			<path d="M200.4,120.9c4.3-4.3,8.9-5.8,14.2-6.5l1.2,8.2c-3.2,0.4-7.1,1.8-9.6,4.3c-3.1,3.1-2.9,5-1,6.8c3.1,3.1,9.7-1.5,13.7-2.6
				c4.8-1.4,9.1-1.9,14,3c6.3,6.3,3.4,14.4-2.1,19.9c-2.9,2.9-7.2,5.6-11.6,6.2l-2-8.1c2.4-0.3,5.4-1.9,7.6-4.1
				c3.1-3.1,2.4-6,1.2-7.2c-2.8-2.8-7.5,0.3-12.7,2.3c-4.3,1.7-9.6,2.8-14.7-2.3C193.1,135.1,193.8,127.6,200.4,120.9z"/>
			<path d="M199.5,173l-25.1-25.1l6.7-6.7l25.1,25.1l6.1-6.1l5.7,5.7l-18.8,18.8l-5.7-5.7L199.5,173z"/>
			<path d="M148.1,174.3l10.1,5.4l9.4-9.4l-5.4-10.2l7.1-7.1l19.8,41.8l-6.5,6.5l-41.9-19.6L148.1,174.3z M175.4,188.9
				c1.3,0.7,2.8,1.6,3.1,1.8c-0.1-0.2-1.1-1.7-1.8-3.1l-5.2-9.8l-5.9,5.9L175.4,188.9z"/>
			<path d="M121.6,200.8l23.1,6l-14.5-14.5l6.7-6.7l30.8,30.8l-11,11c-6.4,6.4-14.5,6.7-19.8,1.4c-4.6-4.6-4.8-10.5-1.9-15.6
				l-21-4.7L121.6,200.8z M150.9,221.6l4.3-4.3l-7.4-7.4l-4.3,4.3c-2.4,2.4-2.3,5.4,0.1,7.8C145.7,224.1,148.8,223.8,150.9,221.6z"
				/>
			<path d="M124.3,248.2l-25.1-25.1l6.7-6.7l25.1,25.1l6.1-6.1l5.7,5.7l-18.8,18.8l-5.7-5.7L124.3,248.2z"/>
		</g>
	</g>
</g>
</svg>
