<?xml version="1.0" encoding="utf-8"?>
<!-- Generator: Adobe Illustrator 26.0.1, SVG Export Plug-In . SVG Version: 6.00 Build 0)  -->
<svg version="1.1" id="Layer_1" xmlns="http://www.w3.org/2000/svg" xmlns:xlink="http://www.w3.org/1999/xlink" x="0px" y="0px"
	 viewBox="0 0 296 385.5" style="enable-background:new 0 0 296 385.5;" xml:space="preserve">
<style type="text/css">
	.st0{fill:#EE746C;}
	.st1{fill:#FB9761;}
	.st2{fill:#29A3EC;}
	.st3{fill:#3CDEF6;}
	.st4{fill:#26B8BC;}
	.st5{fill:#33D1DD;}
	.st6{fill:#FFFFFF;}
	.st7{opacity:0.9;}
</style>
<g>
	<path class="st0" d="M148,0c33.2,0,66.4,4.6,91.1,13.9c17.8,6.7,33.6,25.5,36.5,43.5c1.6,10-5.1,29.5-13.2,45.3
		c-7.5,14.5-14.7,25-16,26.9c-5.9-4.6-12.1-8.8-18.5-12.5c1.9-2.6,4-5.5,6.4-9.4c5.9-9.6,12.5-21,10.3-33.6
		c-3-17-17.8-28.8-33.4-33.9c-36-11.6-90.2-11.6-126.1,0C69.1,45.3,55.4,57.6,52.4,74c-2.2,12.3,4.1,23.8,9.7,33.4
		c2.2,3.8,4.2,6.7,6.2,9.5c-6.5,3.8-12.7,8-18.6,12.6c-1.3-1.9-8.5-12.4-16-26.8c-8.2-15.8-15-35.3-13.3-45.3
		c2.9-18,18.8-36.8,36.6-43.5C81.6,4.6,114.8,0,148,0L148,0z"/>
	<path class="st1" d="M148,5c30.6,0,61.3,4.3,84.1,12.8c16.4,6.2,31,23.5,33.7,40.1c1.5,9.2-4.7,27.3-12.2,41.8
		c-6.9,13.4-13.6,23.1-14.7,24.8c-5.4-4.2-11.1-8.1-17.1-11.6c1.8-2.4,3.7-5.1,5.9-8.7c5.4-8.8,11.5-19.4,9.5-31
		c-2.8-15.7-16.4-26.6-30.9-31.3C173,31.5,123,31.5,89.8,42.1c-14.6,4.7-27.3,16-30,31.1c-2,11.4,3.8,22,8.9,30.9
		c2,3.5,3.9,6.2,5.7,8.8c-6,3.5-11.7,7.4-17.2,11.6c-1.2-1.7-7.9-11.4-14.8-24.8c-7.5-14.6-13.8-32.6-12.3-41.8
		C32.8,41.4,47.5,24,64,17.8C86.7,9.3,117.3,5,148,5L148,5z"/>
	<path class="st2" d="M148,89.5c81.9,0,148,66.2,148,148s-66.1,148-148,148c-81.9,0-148-66.1-148-148C0,155.7,66.1,89.5,148,89.5
		L148,89.5z"/>
	<path class="st3" d="M278,237.5c0,7-0.5,13.9-1.6,20.6c-9.8,62.1-63.5,109.4-128.4,109.4c-71.9,0-130-58.1-130-130
		s58.1-130,130-130S278,165.6,278,237.5z"/>
	<path class="st4" d="M36,261c0,0,40.8-14.3,83.2-4.6c42.4,9.7,51,26.8,102.7,24.5s-51.6,54.2-51.6,54.2L39,294.1L36,261z"/>
	<path class="st5" d="M276.4,258.1c-9.8,62.1-63.5,109.4-128.4,109.4c-71.9,0-130-58.1-130-130c0,0,60.9,61,120.7,51.2
		C198.5,279.1,223.9,263.3,276.4,258.1z"/>
	<g>
		<path class="st6" d="M92,321.5c0,4.4-3.6,8-8,8l0,0c-4.4,0-8-3.6-8-8l0,0c0-4.4,3.6-8,8-8l0,0C88.4,313.5,92,317.1,92,321.5
			L92,321.5z"/>
		<path image-rendering="auto" shape-rendering="auto" color-rendering="auto" class="st6" d="M43.8,209.8c-4.4,0.1-7.9,3.8-7.8,8.1
			c0,30,8.9,59.4,25.5,84.3c2.1,3.9,6.9,5.4,10.8,3.3c3.9-2.1,5.4-6.9,3.3-10.8c-0.3-0.5-0.6-0.9-0.9-1.3
			C59.9,271,52,244.8,52,217.9c0.1-4.4-3.4-8.1-7.8-8.1C44,209.8,43.9,209.8,43.8,209.8L43.8,209.8L43.8,209.8z"/>
	</g>
	<g class="st7">
		<path class="st6" d="M87.7,195.8c0-7.8,2.5-15.7,7.5-23.7c5-8,12.3-14.6,21.9-19.9c9.6-5.2,20.8-7.9,33.6-7.9
			c11.9,0,22.4,2.2,31.5,6.6c9.1,4.4,16.1,10.4,21.1,17.9c5,7.5,7.4,15.8,7.4,24.6c0,7-1.4,13.1-4.2,18.3
			c-2.8,5.3-6.2,9.8-10.1,13.6c-3.9,3.8-10.9,10.2-21,19.3c-2.8,2.5-5,4.8-6.7,6.7c-1.7,1.9-2.9,3.7-3.8,5.3
			c-0.8,1.6-1.5,3.2-1.9,4.8s-1.1,4.4-2,8.4c-1.6,8.5-6.4,12.8-14.6,12.8c-4.3,0-7.9-1.4-10.8-4.2c-2.9-2.8-4.4-6.9-4.4-12.4
			c0-6.9,1.1-12.9,3.2-17.9c2.1-5,5-9.5,8.5-13.3s8.3-8.3,14.3-13.6c5.2-4.6,9-8.1,11.4-10.4s4.3-4.9,5.9-7.8c1.6-2.9,2.4-6,2.4-9.4
			c0-6.6-2.4-12.1-7.3-16.6c-4.9-4.5-11.2-6.8-18.9-6.8c-9,0-15.7,2.3-19.9,6.8c-4.3,4.6-7.9,11.3-10.8,20.1
			c-2.8,9.3-8.1,13.9-15.9,13.9c-4.6,0-8.5-1.6-11.6-4.9C89.3,203.1,87.7,199.6,87.7,195.8z M147.7,330.7c-5,0-9.4-1.6-13.1-4.9
			c-3.7-3.2-5.6-7.8-5.6-13.6c0-5.2,1.8-9.5,5.4-13c3.6-3.5,8-5.3,13.3-5.3c5.2,0,9.5,1.8,13,5.3c3.5,3.5,5.3,7.9,5.3,13
			c0,5.7-1.8,10.3-5.5,13.5C156.8,329,152.6,330.7,147.7,330.7z"/>
	</g>
</g>
</svg>
