<?xml version="1.0" encoding="utf-8"?>
<!-- Generator: Adobe Illustrator 26.0.1, SVG Export Plug-In . SVG Version: 6.00 Build 0)  -->
<svg version="1.1" xmlns="http://www.w3.org/2000/svg" xmlns:xlink="http://www.w3.org/1999/xlink" x="0px" y="0px"
	 viewBox="0 0 171.1 272.5" style="enable-background:new 0 0 171.1 272.5;" xml:space="preserve">
<style type="text/css">
	.st0{fill:#588BD6;}
	.st1{fill:#4B7AB2;}
	.st2{fill:#DBDCDD;}
	.st3{fill:#CCCDCE;}
	.st4{fill:#4773A0;}
	.st5{fill:#94989B;}
</style>
<g id="Layer_1">
</g>
<g id="Layer_2">
	<g id="XMLID_00000178184920597271197540000006265792347865219461_">
		<g>
			<polygon class="st0" points="171.1,100.8 171.1,272.5 157.1,259.3 159.3,92.7 159.3,85 			"/>
			<polygon class="st1" points="171.1,272.5 84.2,272.5 65.4,259.3 157.1,259.3 			"/>
			<polygon class="st0" points="162,60.9 162,79.3 122.1,16.2 122.1,0 			"/>
			<path class="st1" d="M122.1,16.2L162,79.3h-6.1h-4.6h-11.1H76.4h-7.6h-8.1h-3.2L0,16.2H122.1z M143.4,67.4l-24.6-34H24.4l28.8,34
				H143.4z"/>
			<polygon class="st2" points="159.3,85 159.3,92.7 151.2,79.3 155.8,79.3 			"/>
			<polygon class="st3" points="151.2,79.3 159.3,92.7 147.2,92.7 141.8,82.3 140.1,79.3 			"/>
			<polygon class="st4" points="159.3,92.7 157.1,259.3 65.4,259.3 65.4,86 70.6,92.7 78.9,92.7 78.9,249.7 147.2,249.7 147.2,92.7 
							"/>
			<rect x="78.9" y="92.7" class="st5" width="68.3" height="157"/>
			<polygon class="st4" points="141.8,82.3 147.2,92.7 78.9,92.7 78.9,82.5 141.4,82.5 			"/>
			<polygon class="st2" points="118.8,33.4 143.4,67.4 53.2,67.4 24.4,33.4 			"/>
			<rect x="0" y="0" class="st4" width="122.1" height="16.1"/>
			<polygon class="st2" points="78.9,82.5 78.9,92.7 68.8,79.3 76.4,79.3 			"/>
			<polygon class="st3" points="68.8,79.3 78.9,92.7 70.6,92.7 65.4,86 60.6,79.3 			"/>
		</g>
		<g>
		</g>
	</g>
</g>
</svg>
