<svg xmlns="http://www.w3.org/2000/svg" width="91.167" height="88.783" viewBox="0 0 91.167 88.783">
  <g id="Group_142" data-name="Group 142" transform="translate(-1625.35 13465.947) rotate(-129)">
    <path id="Path_133" data-name="Path 133" d="M9376.937,9713.258l-4.677-3.5-4.312,2.09-1.484,15.269.447,20.014-7.886-7.95-4.287.515-3.232,4.067,14.958,21.79,3.068,8.624,8.31,5.1h16.673l7.362-2.773,3.842-8.994v-31.318l-3.842-3.041-5.922,1.066-2.85-4.389-7.081,1.439-.728-5.474-4.354-1.173-4.4,1.891Z" fill="#d6dbed"/>
    <g id="clicker-svgrepo-com" transform="translate(9293.702 9709)">
      <g id="Group_141" data-name="Group 141" transform="translate(57.297)">
        <path id="Path_132" data-name="Path 132" d="M107.137,22.661a6.042,6.042,0,0,0-3.822,1.357,6.069,6.069,0,0,0-9.531-3.379h0a6.069,6.069,0,0,0-9.712-4.856V6.072a6.071,6.071,0,1,0-12.143,0V34.7l-3.591-3.591c-2.484-2.484-4.793-2.593-6.292-2.247a6.023,6.023,0,0,0-2.639,1.369,4.873,4.873,0,0,0-2.027,4.889,6.242,6.242,0,0,0,1.02,2.417L71.935,56.645a15.258,15.258,0,0,0,5.055,10.8,17.163,17.163,0,0,0,11.533,4.592h9.712a14.5,14.5,0,0,0,10.789-4.658,16.289,16.289,0,0,0,4.185-11.125V28.733A6.078,6.078,0,0,0,107.137,22.661Zm3.641,33.589h0c0,7.612-5.393,13.353-12.543,13.353H88.523a14.706,14.706,0,0,1-9.878-3.942,12.817,12.817,0,0,1-4.284-9.41v-.387L60.378,36.124l-.019-.027a3.871,3.871,0,0,1-.586-1.41,2.448,2.448,0,0,1,1.152-2.554l.069-.052.061-.061a3.6,3.6,0,0,1,1.538-.788,3.163,3.163,0,0,1,.712-.082,4.818,4.818,0,0,1,3.314,1.679l7.74,7.74V6.072a3.641,3.641,0,1,1,7.281,0v24.28h2.431V20.64a3.641,3.641,0,0,1,7.281,0V35.208h2.431V25.5a3.641,3.641,0,0,1,7.281,0V40.064H103.5V28.733a3.641,3.641,0,0,1,7.281,0V56.25Z" transform="translate(-57.297)" fill="#062284"/>
      </g>
    </g>
  </g>
</svg>
