<svg xmlns="http://www.w3.org/2000/svg" width="32.137" height="28.33" viewBox="0 0 32.137 28.33">
  <g id="medal-svgrepo-com" transform="translate(0 -30.324)">
    <path id="Path_103" data-name="Path 103" d="M32.04,31.741,23.767,49.059H8.37L.1,31.741a.984.984,0,0,1,.888-1.409H9.954a.984.984,0,0,1,.888.56l5.227,10.942L21.3,30.892a.983.983,0,0,1,.888-.56h8.969A.984.984,0,0,1,32.04,31.741Z" transform="translate(0 -0.007)" fill="#80d0e1"/>
    <path id="Path_104" data-name="Path 104" d="M145.893,236.565a7.888,7.888,0,1,0-7.7,9.6A7.892,7.892,0,0,0,145.893,236.565Zm-7.7,4.8h0a3.08,3.08,0,1,1,0-6.16h0a3.08,3.08,0,0,1,0,6.16Z" transform="translate(-122.126 -187.513)" fill="#bc8647"/>
    <path id="Path_105" data-name="Path 105" d="M256,246.166v-4.806a3.08,3.08,0,1,0,0-6.16v-4.807a7.886,7.886,0,1,1,0,15.772Z" transform="translate(-239.932 -187.512)" fill="#a86b23"/>
    <path id="Path_106" data-name="Path 106" d="M210.015,306.979h0a3.08,3.08,0,0,0,0,6.159h0a3.08,3.08,0,0,0,0-6.159Z" transform="translate(-193.946 -259.29)" fill="#d0a36e"/>
    <path id="Path_107" data-name="Path 107" d="M256,306.979h0v6.159h0a3.08,3.08,0,0,0,0-6.159Z" transform="translate(-239.927 -259.29)" fill="#bc8647"/>
    <path id="Path_108" data-name="Path 108" d="M114.217,30.324a.984.984,0,0,0-.888.56L108.1,41.827h0l-5.227-10.942a.985.985,0,0,0-.888-.56H98.2l6.392,13.382a7.9,7.9,0,0,1,7.026,0l6.392-13.382Z" transform="translate(-92.034)" fill="#48aee2"/>
    <path id="Path_109" data-name="Path 109" d="M324.424,31.735l-8.272,17.319a7.9,7.9,0,0,0-4.186-5.345l6.392-13.382h5.178A.984.984,0,0,1,324.424,31.735Z" transform="translate(-292.385 -0.002)" fill="#3494c7"/>
  </g>
</svg>
