<?xml version="1.0" encoding="utf-8"?>
<!-- Generator: Adobe Illustrator 26.0.1, SVG Export Plug-In . SVG Version: 6.00 Build 0)  -->
<svg version="1.1" id="Layer_1" xmlns="http://www.w3.org/2000/svg" xmlns:xlink="http://www.w3.org/1999/xlink" x="0px" y="0px"
	 viewBox="0 0 72.1 94.3" style="enable-background:new 0 0 72.1 94.3;" xml:space="preserve">
<style type="text/css">
	.st0{fill:#CFCFCF;}
	.st1{fill:#FFFFFE;}
	.st2{fill:#EAEAE9;}
	.st3{fill:#222729;}
</style>
<polygon class="st0" points="36.1,87.7 0,64.3 0,14.5 36.1,34.5 "/>
<polygon class="st1" points="36.1,87.7 72.1,64.3 72.1,14.5 36.1,34.5 "/>
<polygon class="st2" points="36.1,0 0,14.5 36.1,34.5 72.1,14.5 "/>
<ellipse transform="matrix(0.9848 -0.1736 0.1736 0.9848 -7.0975 4.9589)" class="st3" cx="24.8" cy="43.1" rx="2.6" ry="4.6"/>
<ellipse transform="matrix(0.9848 -0.1736 0.1736 0.9848 -10.9184 5.2931)" class="st3" cx="24.8" cy="65.1" rx="2.6" ry="4.6"/>
<ellipse transform="matrix(0.9848 -0.1736 0.1736 0.9848 -9.5729 2.4645)" class="st3" cx="9.3" cy="56" rx="2.6" ry="4.6"/>
<ellipse transform="matrix(0.9848 -0.1736 0.1736 0.9848 -5.7521 2.1303)" class="st3" cx="9.3" cy="33.9" rx="2.6" ry="4.6"/>
<ellipse transform="matrix(0.1736 -0.9848 0.9848 0.1736 -26.6382 101.2993)" class="st3" cx="47" cy="66.5" rx="4.6" ry="2.6"/>
<ellipse transform="matrix(0.1736 -0.9848 0.9848 0.1736 17.7535 90.2678)" class="st3" cx="62.7" cy="34.6" rx="4.6" ry="2.6"/>
<ellipse class="st3" cx="36.1" cy="14.5" rx="4.2" ry="2.1"/>
</svg>
