<?xml version="1.0" encoding="utf-8"?>
<!-- Generator: Adobe Illustrator 26.0.1, SVG Export Plug-In . SVG Version: 6.00 Build 0)  -->
<svg version="1.1" id="Layer_1" xmlns="http://www.w3.org/2000/svg" xmlns:xlink="http://www.w3.org/1999/xlink" x="0px" y="0px"
	 viewBox="0 0 72.1 94.3" style="enable-background:new 0 0 72.1 94.3;" xml:space="preserve">
<style type="text/css">
	.st0{fill:#CFCFCF;}
	.st1{fill:#FFFFFE;}
	.st2{fill:#EAEAE9;}
	.st3{fill:#222729;}
</style>
<polygon class="st0" points="36.1,87.7 0,64.3 0,14.5 36.1,34.5 "/>
<polygon class="st1" points="36.1,87.7 72.1,64.3 72.1,14.5 36.1,34.5 "/>
<polygon class="st2" points="36.1,0 0,14.5 36.1,34.5 72.1,14.5 "/>
<ellipse transform="matrix(0.9848 -0.1736 0.1736 0.9848 -6.7503 4.9286)" class="st3" cx="24.8" cy="41.1" rx="2.6" ry="4.6"/>
<ellipse transform="matrix(0.9848 -0.1736 0.1736 0.9848 -9.008 5.126)" class="st3" cx="24.8" cy="54.1" rx="2.6" ry="4.6"/>
<ellipse transform="matrix(0.9848 -0.1736 0.1736 0.9848 -11.2656 5.3235)" class="st3" cx="24.8" cy="67.1" rx="2.6" ry="4.6"/>
<ellipse transform="matrix(0.9848 -0.1736 0.1736 0.9848 -9.9201 2.4949)" class="st3" cx="9.3" cy="58" rx="2.6" ry="4.6"/>
<ellipse transform="matrix(0.9848 -0.1736 0.1736 0.9848 -5.4049 2.1)" class="st3" cx="9.3" cy="31.9" rx="2.6" ry="4.6"/>
<ellipse transform="matrix(0.9848 -0.1736 0.1736 0.9848 -7.6625 2.2974)" class="st3" cx="9.3" cy="45" rx="2.6" ry="4.6"/>
<ellipse transform="matrix(0.1736 -0.9848 0.9848 0.1736 -3.7801 97.6093)" class="st3" cx="56.3" cy="51.1" rx="4.6" ry="2.6"/>
<ellipse transform="matrix(0.1736 -0.9848 0.9848 0.1736 -30.2607 100.9825)" class="st3" cx="45" cy="68.5" rx="4.6" ry="2.6"/>
<ellipse transform="matrix(0.1736 -0.9848 0.9848 0.1736 21.376 90.5847)" class="st3" cx="64.7" cy="32.6" rx="4.6" ry="2.6"/>
<ellipse class="st3" cx="36.1" cy="23.7" rx="4.2" ry="2.1"/>
<ellipse class="st3" cx="36.1" cy="6.3" rx="4.2" ry="2.1"/>
</svg>
