<svg xmlns="http://www.w3.org/2000/svg" xmlns:xlink="http://www.w3.org/1999/xlink" width="11.084" height="19.992" viewBox="0 0 11.084 19.992">
  <defs>
    <clipPath id="clip-path">
      <rect id="Rectangle_346" data-name="Rectangle 346" width="19.992" height="11.084" fill="none"/>
    </clipPath>
  </defs>
  <g id="Group_169" data-name="Group 169" transform="translate(0 19.992) rotate(-90)" clip-path="url(#clip-path)">
    <g id="Group_168" data-name="Group 168">
      <g id="Group_167" data-name="Group 167" clip-path="url(#clip-path)">
        <path id="Path_161" data-name="Path 161" d="M.549,0c.3,0,.549.593.549,1.325S.853,2.649.549,2.649a.236.236,0,0,1-.076-.013.433.433,0,0,1-.208-.179A2.146,2.146,0,0,1,0,1.325,2.146,2.146,0,0,1,.264.192.433.433,0,0,1,.473.013.236.236,0,0,1,.549,0" transform="translate(18.894 4.217)" fill="#aab9ba"/>
        <path id="Path_162" data-name="Path 162" d="M0,0H.08A.236.236,0,0,0,0,.013.108.108,0,0,0,0,0" transform="translate(19.363 4.217)" fill="#bfcdcf"/>
        <path id="Path_163" data-name="Path 163" d="M.08.013H0A.108.108,0,0,0,0,0,.236.236,0,0,0,.08.013" transform="translate(19.363 6.854)" fill="#bfcdcf"/>
        <path id="Path_164" data-name="Path 164" d="M1.038,0a.12.12,0,0,1,0,.013A.433.433,0,0,0,.834.192,2.146,2.146,0,0,0,.57,1.325,2.146,2.146,0,0,0,.834,2.457a.433.433,0,0,0,.208.179l0,.013H.549c-.154,0-.293-.153-.393-.4a1.979,1.979,0,0,1-.1-.353h0A2.975,2.975,0,0,1,0,1.325,2.974,2.974,0,0,1,.054.753h0A1.993,1.993,0,0,1,.156.4C.256.153.395,0,.549,0Z" transform="translate(18.325 4.217)" fill="#bfcdcf"/>
        <path id="Path_165" data-name="Path 165" d="M.88,4.356a.512.512,0,0,1-.33-.172,1.282,1.282,0,0,1-.216-.315A3.9,3.9,0,0,1,0,2.178C0,.975.4,0,.9,0c.292,0,.552.334.717.853H1.131c-.154,0-.293.153-.393.4a2,2,0,0,0-.1.353h0a3.077,3.077,0,0,0,0,1.143h0a1.985,1.985,0,0,0,.1.353c.1.247.239.4.393.4H1.62c-.165.519-.425.854-.717.854H.88" transform="translate(17.743 3.364)" fill="#6677ef"/>
        <path id="Path_166" data-name="Path 166" d="M1.642,0h.4c-.5,0-.9.975-.9,2.178a3.894,3.894,0,0,0,.334,1.691,1.283,1.283,0,0,0,.216.315.512.512,0,0,0,.33.172H.9c-.5,0-.9-.976-.9-2.178A3.318,3.318,0,0,1,.493.237h0A.547.547,0,0,1,.9,0Z" transform="translate(16.604 3.364)" fill="#3c4fdd"/>
        <path id="Path_167" data-name="Path 167" d="M1.571,7.671A.7.7,0,0,1,1.283,7.6a1.2,1.2,0,0,1-.4-.334A5.808,5.808,0,0,1,0,3.836C0,1.717.712,0,1.59,0,2.133,0,2.612.656,2.9,1.658H2.16a.547.547,0,0,0-.411.237h0a3.318,3.318,0,0,0-.493,1.94c0,1.2.4,2.178.9,2.178H2.9c-.286,1-.766,1.658-1.309,1.658H1.571" transform="translate(15.347 1.706)" fill="#6677ef"/>
        <path id="Path_168" data-name="Path 168" d="M2.678,0h.335c-.878,0-1.59,1.717-1.59,3.836A5.807,5.807,0,0,0,2.3,7.266a1.2,1.2,0,0,0,.4.334.7.7,0,0,0,.288.071H1.59a.98.98,0,0,1-.745-.447A5.931,5.931,0,0,1,0,3.836,5.93,5.93,0,0,1,.845.447.98.98,0,0,1,1.59,0Z" transform="translate(13.924 1.706)" fill="#3c4fdd"/>
        <path id="Path_169" data-name="Path 169" d="M3.955,9.378h0C3.537,10.43,2.949,11.084,2.3,11.084a1.346,1.346,0,0,1-1-.547,8.288,8.288,0,0,1-1.3-5C0,2.481,1.029,0,2.3,0c.652,0,1.24.655,1.658,1.706H2.867a.98.98,0,0,0-.746.447,5.93,5.93,0,0,0-.845,3.389,5.931,5.931,0,0,0,.845,3.389.98.98,0,0,0,.746.447H3.955Z" transform="translate(12.647 0)" fill="#6677ef"/>
        <path id="Path_170" data-name="Path 170" d="M2.3,0H4.291c-1.269,0-2.3,2.481-2.3,5.542a8.288,8.288,0,0,0,1.3,5,1.346,1.346,0,0,0,1,.547H2.3C1.259,11.084.38,9.42.1,7.137a13.177,13.177,0,0,1,0-3.189C.38,1.664,1.259,0,2.3,0" transform="translate(10.653 0)" fill="#3c4fdd"/>
        <path id="Path_171" data-name="Path 171" d="M7.345,0h0a12.882,12.882,0,0,0-.1,1.595,12.881,12.881,0,0,0,.1,1.595H.661C.3,3.189,0,2.475,0,1.595S.3,0,.661,0H7.345Z" transform="translate(3.405 3.947)" fill="#bfcdcf"/>
        <path id="Path_172" data-name="Path 172" d="M4.5,3.947H2.073c-.365,0-.661.714-.661,1.595s.3,1.595.661,1.595H4.5c-.284,2.283-1.162,3.947-2.2,3.947a1.346,1.346,0,0,1-1-.547,8.288,8.288,0,0,1-1.3-5,8.288,8.288,0,0,1,1.3-5A1.346,1.346,0,0,1,2.3,0C3.336,0,4.214,1.664,4.5,3.947" transform="translate(1.993 0)" fill="#6677ef"/>
        <path id="Path_173" data-name="Path 173" d="M2.3,0H4.291a1.346,1.346,0,0,0-1,.547,8.288,8.288,0,0,0-1.3,5,8.288,8.288,0,0,0,1.3,5,1.346,1.346,0,0,0,1,.547H2.3c-.652,0-1.24-.654-1.658-1.706C.63,9.354.621,9.33.612,9.307A10.817,10.817,0,0,1,0,5.542,10.83,10.83,0,0,1,.611,1.778l.028-.072h0C1.057.655,1.646,0,2.3,0" transform="translate(0 0)" fill="#3c4fdd"/>
      </g>
    </g>
  </g>
</svg>
