<?xml version="1.0" encoding="utf-8"?>
<!-- Generator: Adobe Illustrator 26.0.1, SVG Export Plug-In . SVG Version: 6.00 Build 0)  -->
<svg version="1.1" id="Layer_1" xmlns="http://www.w3.org/2000/svg" xmlns:xlink="http://www.w3.org/1999/xlink" x="0px" y="0px"
	 viewBox="0 0 189 183.6" style="enable-background:new 0 0 189 183.6;" xml:space="preserve">
<style type="text/css">
	.st0{fill:#258484;}
	.st1{fill:#3CDEF6;}
	.st2{fill:#309DA0;}
	.st3{fill:#36CDD8;}
	.st4{fill:#073C52;}
	.st5{fill:#FF9D00;}
	.st6{fill:#104C68;}
	.st7{fill:#195170;}
	.st8{fill:#BFCDCF;}
	.st9{fill:#0B4257;}
</style>
<circle class="st0" cx="165.3" cy="22.1" r="19.5"/>
<path class="st1" d="M189,91.8c0,11.5-2.1,22.6-6,32.7c-1.3,3.4-2.8,6.6-4.4,9.8c-15.3,29.3-46,49.3-81.4,49.3
	c-27.1,0-51.5-11.8-68.3-30.5c-7.9-8.9-14.2-19.3-18.2-30.7c-3.4-9.6-5.2-19.9-5.2-30.6C5.4,41.1,46.5,0,97.2,0S189,41.1,189,91.8z"
	/>
<circle class="st2" cx="19.5" cy="152.6" r="19.5"/>
<path class="st2" d="M183,124.5c-1.3,3.4-2.8,6.6-4.4,9.8c-15.3,29.3-46,49.3-81.4,49.3c-27.1,0-51.5-11.8-68.3-30.5
	c8.4-10.9,21.6-21.8,52.8-31.5C124.9,108.2,163.6,117.6,183,124.5z"/>
<path class="st3" d="M178.6,134.3c-15.3,29.3-46,49.3-81.4,49.3c-40,0-74-25.5-86.6-61.2c13.9-6.5,36.9-13.6,63.4-6.4
	C106.4,124.8,146.6,144.1,178.6,134.3z"/>
<g id="XMLID_00000020383291829691725730000008332804251091838380_">
	<g>
		<path class="st4" d="M166.2,76.3c3.7,0,6.6,6.9,6.6,15.5s-3,15.5-6.6,15.5h0c-0.3,0-0.7-0.1-1-0.2c-0.7-0.2-1.4-0.8-2-1.5
			c-2.2-2.6-3.6-7.8-3.6-13.8s1.5-11.3,3.6-13.8c0.6-0.7,1.3-1.2,2-1.5C165.5,76.4,165.9,76.3,166.2,76.3z"/>
		<path class="st5" d="M165.2,76.3h1.1c-0.3,0-0.7,0.1-1,0.2C165.2,76.4,165.2,76.4,165.2,76.3z"/>
		<path class="st5" d="M166.2,107.3h-1.1c0-0.1,0-0.1,0.1-0.2C165.5,107.3,165.9,107.3,166.2,107.3z"/>
		<path class="st6" d="M163.2,105.6c0.6,0.7,1.3,1.2,2,1.5c0,0.1,0,0.1-0.1,0.2h-4.9h0c-0.9,0-1.8-0.4-2.5-1.2
			c-0.7-0.6-1.3-1.5-1.8-2.6c-1.4-2.8-2.3-7.1-2.3-11.8s0.9-8.9,2.3-11.8c0.5-1.1,1.1-1.9,1.8-2.6c0.8-0.8,1.6-1.2,2.5-1.2h4.9
			c0,0.1,0,0.1,0.1,0.2c-0.7,0.2-1.4,0.8-2,1.5c-2.2,2.6-3.6,7.8-3.6,13.8S161.1,103.1,163.2,105.6z"/>
		<path class="st4" d="M165.2,107.3c-2,6.4-5.3,10.5-8.9,10.5h0c-0.6,0-1.1-0.1-1.6-0.3c-5.4-1.8-9.5-12.7-9.5-25.7
			c0-13.1,4.1-23.9,9.5-25.7c0.5-0.2,1.1-0.3,1.6-0.3h0c3.7,0,6.9,4.1,8.9,10.5h-4.9c-0.9,0-1.8,0.4-2.5,1.2
			c-0.7,0.6-1.3,1.5-1.8,2.6c-1.4,2.8-2.3,7.1-2.3,11.8s0.9,8.9,2.3,11.8c0.5,1.1,1.1,1.9,1.8,2.6c0.8,0.8,1.6,1.2,2.5,1.2h0H165.2z
			"/>
		<path class="st5" d="M154.5,65.8h1.7c-0.6,0-1.1,0.1-1.6,0.3C154.6,66,154.5,65.9,154.5,65.8z"/>
		<path class="st5" d="M154.6,117.5c0.5,0.2,1.1,0.3,1.6,0.3h-1.8C154.5,117.7,154.5,117.6,154.6,117.5z"/>
		<path class="st6" d="M154.5,65.8c0,0.1,0.1,0.2,0.1,0.3c-5.4,1.8-9.5,12.7-9.5,25.7c0,13.1,4.1,23.9,9.5,25.7
			c0,0.1-0.1,0.2-0.1,0.3H146c-6.1,0-11.1-11.6-11.1-26c0-14.4,5-26,11.1-26H154.5z"/>
		<path class="st4" d="M154.5,65.8H146c-6.1,0-11.1,11.6-11.1,26c0,14.4,5,26,11.1,26h8.5c-3,7.4-7.2,12-11.9,12
			c-9,0-16.3-17-16.3-38s7.3-38,16.3-38h0C147.3,53.8,151.5,58.4,154.5,65.8z"/>
		<path class="st7" d="M142.6,129.8L142.6,129.8l-15,0l0,0c-7.3,0-13.5-11.2-15.5-26.7c-0.5-3.6-0.7-7.4-0.7-11.3s0.3-7.8,0.7-11.3
			h0c2.1-15.5,8.2-26.7,15.5-26.7h0h15c-9,0-16.3,17-16.3,38S133.6,129.8,142.6,129.8z"/>
		<path class="st8" d="M112,103.2H84.1h-15c0,0,0,0,0-0.1c-0.2,0.1-0.4,0.1-0.6,0.1c-2.7,0-4.8-5.1-4.8-11.3
			c0-6.3,2.2-11.3,4.8-11.3c0.2,0,0.4,0,0.6,0.1c0,0,0-0.1,0-0.1h15H112c-0.5,3.6-0.7,7.4-0.7,11.3S111.6,99.6,112,103.2z"/>
		<path class="st4" d="M84.1,80.5h-15h-0.6c-2.7,0-4.8,5.1-4.8,11.3c0,6.3,2.2,11.3,4.8,11.3h0.6h15c-2.1,15.5-8.2,26.7-15.6,26.7
			c-9,0-16.3-17-16.3-38c0-8.1,1.1-15.7,2.9-21.8c1.5-5,3.5-9.1,5.8-11.9c2.2-2.7,4.8-4.3,7.5-4.3C75.9,53.8,82.1,65,84.1,80.5z"/>
		<path class="st5" d="M69.1,80.5C69.1,80.5,69.1,80.5,69.1,80.5c-0.2,0-0.4,0-0.6,0H69.1z"/>
		<path class="st5" d="M69.1,103.1C69.1,103.1,69.1,103.1,69.1,103.1l-0.6,0.1C68.8,103.2,69,103.1,69.1,103.1z"/>
		<path class="st7" d="M68.6,129.8h-15c-4.7,0-8.9-4.6-11.9-12c-0.1-0.2-0.2-0.4-0.3-0.7c-1.4-3.7-2.5-8.1-3.2-12.9c0,0,0,0,0,0
			c-0.6-3.9-0.9-8.1-0.9-12.4s0.3-8.5,0.9-12.4c0.7-4.8,1.8-9.2,3.2-12.9c0.1-0.2,0.2-0.4,0.3-0.7c3-7.4,7.2-12,11.9-12h15
			c-2.7,0-5.2,1.5-7.5,4.3c-2.3,2.8-4.3,6.9-5.8,11.9c-1.9,6.2-2.9,13.7-2.9,21.8C52.3,112.8,59.6,129.8,68.6,129.8z"/>
		<path class="st5" d="M41.7,117.8H39c0.8,0,1.7-0.2,2.5-0.7C41.5,117.4,41.6,117.6,41.7,117.8z"/>
		<path class="st6" d="M41.7,65.8c-0.1,0.2-0.2,0.4-0.3,0.7c-1.4,3.7-2.5,8.1-3.2,12.9c-0.6,3.9-0.9,8.1-0.9,12.4s0.3,8.5,0.9,12.4
			c0,0,0,0,0,0c0.7,4.8,1.8,9.2,3.2,12.9c-0.8,0.4-1.6,0.7-2.5,0.7c-3.7,0-6.9-4.1-8.9-10.5c-0.1-0.2-0.1-0.3-0.2-0.5
			c-0.8-2.5-1.3-5.4-1.7-8.5v0c-0.2-2.1-0.4-4.3-0.4-6.5s0.1-4.4,0.4-6.5c0,0,0,0,0,0c0.3-3.1,0.9-6,1.7-8.5
			c0.1-0.2,0.1-0.3,0.2-0.5c2-6.4,5.3-10.5,8.9-10.5H41.7z"/>
		<path class="st9" d="M28.2,98.3c0.3,3.1,0.9,6,1.7,8.5c0.1,0.2,0.1,0.3,0.2,0.5h-1.8c-3.7,0-6.6-6.9-6.6-15.5
			c0-8.6,3-15.5,6.6-15.5H30c-0.1,0.2-0.1,0.3-0.2,0.5c-0.8,2.5-1.3,5.4-1.7,8.5c0,0,0,0,0,0c-0.2,2.1-0.4,4.3-0.4,6.5
			S28,96.2,28.2,98.3L28.2,98.3z"/>
	</g>
	<g>
	</g>
</g>
</svg>
